<svg xmlns="http://www.w3.org/2000/svg" width="38" height="52" viewBox="0 0 38 52">
    <path fill="#FFF" fill-rule="nonzero" stroke="#FFF" d="M36.563 5.311H32.3V1.81a.78.78 0 0 0-.76-.762H6.461a.78.78 0 0 0-.761.762V5.26H1.437a.78.78 0 0 0-.762.761v5.28a.78.78 0 0 0 .762.76h3.198l3.4 38.275c.051.406.356.71.762.71h20.406c.406 0 .71-.304.761-.71l3.401-38.274h3.198a.78.78 0 0 0 .762-.762V6.073a.748.748 0 0 0-.762-.762zm-29.34-2.74h23.554v2.69H7.223V2.57zm.305 25.126h3.756c.305 0 .61-.203.71-.507A7.454 7.454 0 0 1 19 22.266c3.096 0 5.888 1.929 7.005 4.873a.763.763 0 0 0 .71.507h3.757l-.406 4.264h-3.35a.763.763 0 0 0-.71.508c-1.067 2.893-3.91 4.873-7.006 4.873a7.454 7.454 0 0 1-7.005-4.924.763.763 0 0 0-.71-.507H7.882l-.355-4.163zm20.964 21.777H9.508L8.086 33.332h2.741c1.371 3.248 4.62 5.431 8.173 5.431s6.802-2.132 8.223-5.33h2.741l-1.472 16.04zm2.082-23.35h-3.35A9.013 9.013 0 0 0 19 20.743c-3.604 0-6.853 2.132-8.223 5.431h-3.35l-1.27-14.162h25.686l-1.27 14.112zm5.228-15.584H2.198V6.834h33.604v3.706z"/>
</svg>
