<svg xmlns="http://www.w3.org/2000/svg" width="25" height="26" viewBox="0 0 25 26">
    <path fill="#7C878E" fill-rule="evenodd" d="M4.734 20.375a4.168 4.168 0 0 1 8.101 0H24.02a.98.98 0 1 1 0 1.96H12.835a4.168 4.168 0 0 1-8.1 0H.98a.98.98 0 0 1 0-1.96h3.754zm9.417-8.362a4.168 4.168 0 0 1 8.088 0h1.78a.98.98 0 1 1 0 1.96l-1.767.001a4.168 4.168 0 0 1-8.114 0H.98a.98.98 0 1 1 0-1.96h13.17zM1.695 3.652a4.168 4.168 0 0 1 8.075 0h14.25a.98.98 0 0 1 0 1.96H9.796a4.168 4.168 0 0 1-8.126 0H.98a.98.98 0 0 1 0-1.96h.715zm4.038 3.533a2.5 2.5 0 1 0 0-5 2.5 2.5 0 0 0 0 5zm12.462 8.335a2.5 2.5 0 1 0 0-5 2.5 2.5 0 0 0 0 5zm-9.41 8.335a2.5 2.5 0 1 0 0-5 2.5 2.5 0 0 0 0 5z"/>
</svg>
