<svg xmlns="http://www.w3.org/2000/svg" xmlns:xlink="http://www.w3.org/1999/xlink" width="27" height="23" viewBox="0 0 27 23">
    <defs>
        <path id="a" d="M24.817 11.172a.625.625 0 0 1 0 .884l-5 5a.624.624 0 1 1-.884-.884l3.933-3.933h-9.741a.625.625 0 0 1 0-1.25h9.74l-3.932-3.933a.625.625 0 0 1 .884-.884l5 5zM10.625 22.178C4.766 22.178 0 17.41 0 11.552 0 5.694 4.766.927 10.625.927c1.833 0 3.648.483 5.248 1.394.3.17.405.553.235.853a.628.628 0 0 1-.853.233 9.372 9.372 0 0 0-4.63-1.23c-5.17 0-9.375 4.205-9.375 9.375s4.205 9.376 9.375 9.376a9.384 9.384 0 0 0 4.63-1.23.625.625 0 1 1 .618 1.087 10.641 10.641 0 0 1-5.248 1.393z"/>
    </defs>
    <g fill="none" fill-rule="evenodd" transform="translate(1)">
        <use fill="#7C878E" xlink:href="#a"/>
        <path stroke="#7C878E" stroke-width=".35" d="M22.443 12.414h-9.318a.8.8 0 0 1 0-1.6h9.319L18.81 7.18a.8.8 0 0 1 1.13-1.131l5 5a.8.8 0 0 1 0 1.131l-5 5a.799.799 0 1 1-1.13-1.13l3.633-3.635zm-11.818 9.939c-5.955 0-10.8-4.845-10.8-10.8 0-5.956 4.845-10.8 10.8-10.8a10.8 10.8 0 0 1 5.334 1.416.801.801 0 0 1 .3 1.092.804.804 0 0 1-1.09.298 9.197 9.197 0 0 0-4.544-1.207c-5.073 0-9.2 4.127-9.2 9.2 0 5.074 4.127 9.2 9.2 9.2a9.21 9.21 0 0 0 4.544-1.205.8.8 0 1 1 .79 1.39 10.816 10.816 0 0 1-5.334 1.416z"/>
    </g>
</svg>
