<svg xmlns="http://www.w3.org/2000/svg" width="30" height="33" viewBox="0 0 30 33">
    <path fill="#7C878E" fill-rule="nonzero" d="M15.822 25.58l5.4 5.4a.797.797 0 0 1-1.127 1.127l-4.273-4.273v3.71a.797.797 0 0 1-1.593 0v-3.727l-4.29 4.29a.797.797 0 0 1-1.126-1.127l5.416-5.416v-2.472a2.656 2.656 0 0 1-1.875-2.538c0-.04.002-.078.008-.116H1.732a.797.797 0 0 1-.796-.797V2.648c0-.44.356-.797.796-.797H14.23v-.714a.797.797 0 0 1 1.593 0v.714h12.463c.44 0 .797.357.797.797V19.64c0 .44-.357.797-.797.797h-10.63a.803.803 0 0 1 .01.116 2.656 2.656 0 0 1-1.843 2.528v2.499zm.257-5.142h-2.14a.803.803 0 0 1 .008.116 1.062 1.062 0 0 0 2.124 0c0-.04.003-.078.008-.116zM2.53 3.444v15.4h24.96v-15.4H2.529zm7.256 10.047l-3.498 3.498a.797.797 0 1 1-1.126-1.127l4.061-4.061a.797.797 0 0 1 1.127 0l.66.66 3.896-3.895a.797.797 0 0 1 1.126 0l2.499 2.5L24.295 5.3a.797.797 0 1 1 1.126 1.127l-6.328 6.328a.797.797 0 0 1-1.126 0l-2.5-2.499-3.894 3.895a.797.797 0 0 1-1.127 0l-.66-.66z"/>
</svg>
