<svg xmlns="http://www.w3.org/2000/svg" width="32" height="20" viewBox="0 0 32 20">
    <path fill="#7C878E" fill-rule="nonzero" d="M15.855.001c2.59 0 4.721 2.119 4.721 4.722a4.716 4.716 0 0 1-4.721 4.722 4.716 4.716 0 0 1-4.722-4.722A4.716 4.716 0 0 1 15.855.001zm0 1.985a2.73 2.73 0 0 0-2.737 2.737 2.73 2.73 0 0 0 2.737 2.737 2.73 2.73 0 0 0 2.737-2.737 2.754 2.754 0 0 0-2.737-2.737zm3.329 9.45c2.43 0 4.382 1.938 4.427 4.395v2.923c0 .687-.557 1.245-1.245 1.245H9.343a1.245 1.245 0 0 1-1.245-1.245V15.83a4.398 4.398 0 0 1 4.395-4.395h6.69zm2.459 4.456c-.026-1.388-1.117-2.47-2.484-2.47h-6.642a2.446 2.446 0 0 0-2.442 2.44v2.151h11.568v-2.12zM6.207.92a3.825 3.825 0 0 1 3.829 3.83 3.825 3.825 0 0 1-3.83 3.829 3.825 3.825 0 0 1-3.829-3.83A3.84 3.84 0 0 1 6.207.92zm0 1.968A1.876 1.876 0 0 0 4.345 4.75c0 1.032.83 1.86 1.862 1.86a1.855 1.855 0 0 0 1.86-1.86 1.855 1.855 0 0 0-1.86-1.862zM25.41.92a3.825 3.825 0 0 1 3.83 3.83 3.825 3.825 0 0 1-3.83 3.829 3.825 3.825 0 0 1-3.83-3.83A3.84 3.84 0 0 1 25.41.92zm0 1.968a1.876 1.876 0 0 0-1.861 1.862c0 1.032.828 1.86 1.86 1.86a1.855 1.855 0 0 0 1.862-1.86 1.855 1.855 0 0 0-1.861-1.862zM6.386 14.481a.982.982 0 0 1 0 1.963H1.103a.982.982 0 0 1-.982-.981v-3.214C.151 10.667 1.406 9.42 2.97 9.42h5.212a.982.982 0 1 1 0 1.964H2.969a.884.884 0 0 0-.885.883v2.214h4.302zm18.844 0h4.302v-2.214a.884.884 0 0 0-.885-.883h-5.212a.982.982 0 0 1 0-1.964h5.212c1.563 0 2.819 1.247 2.848 2.83v3.213c0 .542-.44.981-.982.981H25.23a.982.982 0 1 1 0-1.963z"/>
</svg>
