<svg xmlns="http://www.w3.org/2000/svg" width="21" height="26" viewBox="0 0 21 26">
    <path fill="#7C878E" fill-rule="evenodd" d="M12.726 25.47H9.366a1.137 1.137 0 1 1 0-2.273h3.407a1.137 1.137 0 1 1-.047 2.272zm6.862-6.818h.004a1.137 1.137 0 1 1-.06 2.272H1.436l-.06.002a1.137 1.137 0 0 1-.002-2.274h1.173v-7.967a7.917 7.917 0 0 1 6.818-7.858v-1.24a1.137 1.137 0 1 1 2.273.068v1.18c3.84.557 6.794 3.855 6.794 7.85v7.966h1.156zm-3.405 0v-7.967c0-3.127-2.567-5.67-5.717-5.67a5.677 5.677 0 0 0-5.67 5.67v7.966h11.387z"/>
</svg>
