<svg xmlns="http://www.w3.org/2000/svg" width="28" height="32" viewBox="0 0 28 32">
    <g fill="#A1ABB2" fill-rule="nonzero">
        <path d="M13.976 0c4.317 0 7.874 3.535 7.874 7.873a7.863 7.863 0 0 1-7.874 7.873 7.863 7.863 0 0 1-7.873-7.873A7.863 7.863 0 0 1 13.976 0zm0 2.5a5.363 5.363 0 0 0-5.373 5.373 5.363 5.363 0 0 0 5.373 5.373 5.363 5.363 0 0 0 5.374-5.373c0-2.954-2.435-5.373-5.374-5.373zM20.317 17.863c4.016 0 7.238 3.2 7.313 7.251v5.568c0 .69-.56 1.25-1.25 1.25H1.572c-.69 0-1.25-.56-1.25-1.25v-5.568c0-4.011 3.262-7.25 7.251-7.25h12.744zm4.813 7.274c-.049-2.672-2.166-4.774-4.813-4.774H7.573a4.757 4.757 0 0 0-4.751 4.751v4.318H25.13v-4.295z"/>
    </g>
</svg>
