<svg xmlns="http://www.w3.org/2000/svg" width="64" height="81" viewBox="0 0 64 81">
    <path fill="#131E29" fill-rule="nonzero" d="M59.693 47.498V27.324H4.305v20.174h55.388zm0 3.783H4.305v19.228h55.388V51.28zm0-27.74V4.661H4.305v18.88h55.388zm-16.64 50.75H20.814c-.187 3.67-3.241 6.587-6.98 6.587-3.74 0-6.794-2.917-6.982-6.586h-4.45A1.898 1.898 0 0 1 .497 72.4V2.77C.498 1.725 1.35.878 2.4.878h59.196c1.05 0 1.903.847 1.903 1.892V72.4a1.898 1.898 0 0 1-1.903 1.892h-4.582c-.188 3.669-3.242 6.586-6.981 6.586-3.74 0-6.794-2.917-6.981-6.586zm3.818 0a3.176 3.176 0 0 0 3.163 2.805 3.176 3.176 0 0 0 3.163-2.804H46.87zm-29.875 0H10.67a3.176 3.176 0 0 0 3.163 2.805 3.176 3.176 0 0 0 3.163-2.804zM39.69 13.64H24.308v1.892a1.898 1.898 0 0 1-1.903 1.891 1.898 1.898 0 0 1-1.904-1.891v-3.784c0-1.044.852-1.891 1.904-1.891h19.188c1.051 0 1.904.847 1.904 1.891v3.613a1.898 1.898 0 0 1-1.904 1.891 1.898 1.898 0 0 1-1.903-1.891V13.64zm0 23.21H24.308v1.892a1.898 1.898 0 0 1-1.903 1.892 1.898 1.898 0 0 1-1.904-1.892V34.96c0-1.045.852-1.892 1.904-1.892h19.188c1.051 0 1.904.847 1.904 1.892v3.612a1.898 1.898 0 0 1-1.904 1.892 1.898 1.898 0 0 1-1.903-1.892V36.85zm0 23.21H24.308v1.893a1.898 1.898 0 0 1-1.903 1.891 1.898 1.898 0 0 1-1.904-1.891v-3.784c0-1.045.852-1.891 1.904-1.891h19.188c1.051 0 1.904.846 1.904 1.891v3.613a1.898 1.898 0 0 1-1.904 1.891 1.898 1.898 0 0 1-1.903-1.891V60.06z"/>
</svg>
