<svg xmlns="http://www.w3.org/2000/svg" width="25" height="23" viewBox="0 0 25 23">
    <path fill="#7C878E" fill-rule="nonzero" d="M10 5.359V3.024a2.5 2.5 0 1 1 5 0V5.36h7.5a2.5 2.5 0 0 1 2.5 2.5v11.667a2.5 2.5 0 0 1-2.5 2.5h-20a2.5 2.5 0 0 1-2.5-2.5V7.859a2.5 2.5 0 0 1 2.5-2.5H10zm0 1.958H2.5c-.3 0-.542.243-.542.542v11.667c0 .299.243.541.542.541h20c.3 0 .542-.242.542-.541V7.859c0-.3-.243-.542-.542-.542H15v.377a2.5 2.5 0 1 1-5 0v-.377zm-3.75 6.5a.98.98 0 1 1 0-1.959h12.5a.98.98 0 0 1 0 1.959H6.25zm2.5 3.62a.98.98 0 0 1 0-1.957h7.5a.98.98 0 0 1 0 1.958h-7.5zM12.5 2.483c-.3 0-.542.243-.542.542v4.67a.542.542 0 0 0 1.084 0v-4.67c0-.3-.243-.542-.542-.542z"/>
</svg>
