<svg xmlns="http://www.w3.org/2000/svg" width="27" height="33" viewBox="0 0 27 33">
    <path fill="#131E29" fill-rule="nonzero" d="M19.355 22.85v-2.72c0-.77.623-1.394 1.391-1.394.769 0 1.391.625 1.391 1.394v2.72h2.714c.768 0 1.391.624 1.391 1.394 0 .77-.623 1.394-1.39 1.394h-2.715v2.72c0 .77-.622 1.394-1.39 1.394a1.393 1.393 0 0 1-1.392-1.394v-2.72h-2.714a1.393 1.393 0 0 1-1.39-1.394c0-.77.622-1.394 1.39-1.394h2.714zm-7.08 5.974c.343.28.667.535.968.764.321-.249.668-.526 1.035-.83a1.39 1.39 0 0 1 1.958.183c.49.593.408 1.472-.183 1.963-.519.43-1.002.812-1.438 1.142-.265.2-.46.341-.569.418a1.389 1.389 0 0 1-1.582.007 20.023 20.023 0 0 1-.551-.397 42.25 42.25 0 0 1-5.61-5.025C2.38 22.829 0 18.419 0 13.953 0 6.62 5.932.675 13.25.675c7.34 0 13.25 5.897 13.25 13.278 0 1.033-.136 2.077-.398 3.127a1.39 1.39 0 1 1-2.7-.677c.209-.835.315-1.652.315-2.45 0-5.838-4.66-10.49-10.467-10.49-5.781 0-10.468 4.696-10.468 10.49 0 3.61 2.067 7.443 5.556 11.195a39.497 39.497 0 0 0 3.937 3.676z"/>
</svg>
