<svg xmlns="http://www.w3.org/2000/svg" width="50" height="51" viewBox="0 0 50 51">
    <path fill="#FFF" fill-rule="nonzero" d="M34.558 23.121h13.371c.922 0 1.583.661 1.583 1.583v4.964c0 .921-.661 1.582-1.583 1.582h-2.405v17.36c0 .92-.66 1.582-1.582 1.582H6.058c-.921 0-1.582-.661-1.582-1.583V31.25H2.07c-.922 0-1.583-.66-1.583-1.582v-4.964c0-.922.661-1.583 1.583-1.583h13.371v-7.39c0-2.018 1.558-3.576 3.576-3.576h2.991c.448 0 .797.155 1.112.47L25 14.505l1.879-1.88c.315-.315.664-.47 1.112-.47h2.99c2.019 0 3.577 1.558 3.577 3.576v7.39zm-14.543-2.405c0-.598.4-.997.997-.997.598 0 .997.399.997.997v2.99h5.982v-2.99c0-.598.399-.997.997-.997s.997.399.997.997v2.99h1.993v-7.975c0-.598-.398-.997-.996-.997h-2.493l-2.691 2.692a.964.964 0 0 1-1.396 0l-2.792-2.692h-2.592c-.598 0-.996.4-.996.997v7.976h1.993v-2.991zM3.068 28.671h43.864V25.7H3.068v2.97zm3.987 18.965h35.89v-16.4H7.055v16.4zM25 11.332c-3.115 0-5.57-2.455-5.57-5.57S21.885.192 25 .192s5.57 2.455 5.57 5.57-2.455 5.57-5.57 5.57zm0-8.56c-1.695 0-2.99 1.295-2.99 2.99 0 1.695 1.295 2.99 2.99 2.99 1.695 0 2.99-1.295 2.99-2.99 0-1.695-1.295-2.99-2.99-2.99z"/>
</svg>
