<svg xmlns="http://www.w3.org/2000/svg" width="19" height="23" viewBox="0 0 19 23">
    <path fill="#F0B323" fill-rule="nonzero" d="M1.46 22.775H.06V1.43l.087-.165.215-.149c.572-.395 1.876-.74 4.17-.74 1.248 0 2.206.15 4.269.59 2.013.429 2.94.574 4.127.574 1.239 0 2.37-.115 3.369-.308.346-.066.651-.137.913-.209.157-.042.264-.076.32-.095l.93-.324V13.09l-.133.047-.334.118c-1.003.353-2.75.69-5.065.69-1.313 0-2.305-.154-4.419-.605-1.988-.424-2.847-.56-3.978-.56-1.433 0-2.432.152-3.07.372v9.622zm15.8-10.552V2.252c-.809.2-2.318.488-4.332.488-1.557 0-2.99-.305-4.377-.6-1.36-.29-2.646-.565-4.02-.565-1.892 0-2.87.276-3.27.432v9.95c.618-.185 1.65-.376 3.27-.376 1.48 0 2.877.298 4.228.586 1.336.285 2.718.58 4.17.58 2.137 0 3.685-.347 4.332-.524z"/>
</svg>
