<svg xmlns="http://www.w3.org/2000/svg" width="24" height="21" viewBox="0 0 24 21">
    <path fill="#131E29" fill-rule="nonzero" d="M18.193 15.567v-1.942a.995.995 0 1 1 1.99 0v1.942h1.942a.995.995 0 1 1 0 1.99h-1.941V19.5a.995.995 0 1 1-1.991 0v-1.942h-1.942a.995.995 0 1 1 0-1.99h1.942zm4.188-2.51a5.333 5.333 0 0 0-1.541-.907c.1-.26.18-.532.238-.812.094-.461.166-.925.216-1.394a9.84 9.84 0 0 0 .056-1.085c.002-.36-.016-.72-.054-1.08-.05-.465-.12-.93-.215-1.39a5.18 5.18 0 0 0-4.21-4.057 30.094 30.094 0 0 0-10.05 0 5.179 5.179 0 0 0-4.21 4.056c-.094.462-.166.926-.215 1.392a9.856 9.856 0 0 0-.054 1.087c-.002.36.016.72.054 1.079.05.467.121.93.215 1.39a5.177 5.177 0 0 0 3.948 4c.5.111.802.623.657 1.115-.23.78-.6 1.508-1.102 2.161 1.572-.293 3.144-1.082 4.582-2.537a.885.885 0 0 1 .63-.262h.539c.642 0 1.284-.02 1.924-.06a5.344 5.344 0 0 0-.168 1.783c-.585.032-1.171.048-1.757.047h-.177c-1.949 1.858-4.136 2.741-6.356 2.908a1.422 1.422 0 0 1-1.392-.868c-.235-.558-.092-1.204.328-1.582.377-.373.689-.803.926-1.272a6.949 6.949 0 0 1-4.316-5.075 16.191 16.191 0 0 1-.241-1.563 11.526 11.526 0 0 1-.064-1.264c-.002-.425.019-.85.064-1.272C.69 7.07.77 6.55.878 6.03A6.95 6.95 0 0 1 6.526.586a31.863 31.863 0 0 1 10.64 0 6.95 6.95 0 0 1 5.649 5.446c.106.518.186 1.04.241 1.562.045.423.067.848.065 1.267 0 .425-.022.85-.067 1.27a16.196 16.196 0 0 1-.242 1.564c-.098.474-.243.93-.431 1.362zm-6.436-7.38a.885.885 0 1 1 0 1.77h-8.32a.885.885 0 1 1 0-1.77h8.32zm0 4.248a.885.885 0 1 1 0 1.77h-8.32a.885.885 0 1 1 0-1.77h8.32z"/>
</svg>
