<svg xmlns="http://www.w3.org/2000/svg" width="48" height="51" viewBox="0 0 48 51">
    <path fill="#FFF" fill-rule="nonzero" d="M9.576 36.03c2.37-.21 4.452-1.163 6.25-2.473 2.213 1.093 4.325 1.533 6.44 1.345 4.893-.435 7.755-5.24 7.696-9.633-.044-3.162-1.602-5.3-3.972-5.445-1.369-.091-2.635.47-3.444 1.495l-.019.025c-.05.064-.1.131-.146.2-1.062 1.56-3.386 4.224-7.022 4.547-2.667.237-4.389-1.184-6.058-2.558-1.526-1.257-3.107-2.562-5.245-2.366C1.604 21.385.166 23.89.478 27.4c.515 5.799 4.498 8.66 8.396 8.66.235 0 .47-.01.702-.03zm14.182-12.628c.17-.325.363-.692.434-.8.386-.48.998-.736 1.67-.696 1.451.09 1.992 1.81 2.013 3.392.04 2.907-1.732 7.164-5.795 7.525-1.456.13-2.932-.116-4.478-.751 3.181-3.012 5.232-6.912 6.156-8.67zM2.556 27.216c-.162-1.826.296-3.847 1.685-3.971.075-.007.15-.01.224-.01 1.192 0 2.223.85 3.51 1.908 1.806 1.488 4.053 3.337 7.57 3.027a10.2 10.2 0 0 0 3.488-.952c-2.207 3.087-5.455 6.362-9.641 6.734-4.539.411-6.576-3.807-6.836-6.736zm27.257-11.292c-1.836-.508-3.586-1.396-5.002-2.868-1.793-1.863-2.38-4.28-1.65-6.805.807-2.8 3.196-5.35 5.556-5.935 1.29-.318 2.454-.021 3.28.837 1.322 1.373 1.302 3.16 1.283 4.888-.022 1.912-.042 3.718 1.509 5.33 2.133 2.215 5.119 2.332 6.707 2.205 1.257-.103 2.468.479 3.226 1.55 1.227 1.733.626 4.005-1.532 5.79-1.572 1.301-3.677 2.102-5.753 2.102-1.83 0-3.638-.623-5.037-2.077-1.267-1.315-2.116-2.962-2.587-5.017zm11.22-.135c-1.648.323-5.264 1.031-8.94.58.399 1.259.988 2.272 1.81 3.125 2.364 2.456 6.076 1.37 7.957-.186.344-.284 2.017-1.765 1.16-2.976-.304-.428-.759-.677-1.235-.68-.104.01-.447.078-.751.137zM25.166 6.83c-.363 1.259-.458 3.11 1.15 4.78 2.326 2.418 5.929 2.91 9.04 2.806a8.878 8.878 0 0 1-2.07-1.598c-2.143-2.227-2.115-4.762-2.092-6.8.019-1.649-.005-2.696-.699-3.417-.086-.09-.31-.322-.798-.322-.137 0-.296.019-.478.064-1.428.353-3.384 2.17-4.053 4.488zM5.488 14.036C2.658 12.023 2.616 8.09 4.21 5.45 5.4 3.479 7.193 2.723 8.78 3.526c.983.497 1.613 1.428 1.685 2.49.081 1.19.496 3.387 2.359 4.712 1.334.95 2.67.735 4.083.507 1.305-.21 2.784-.447 4.066.465 1.482 1.054 1.499 3.222.041 5.271-1.24 1.744-3.283 3.029-5.429 3.03-1.065 0-2.155-.317-3.186-1.05-1.288-.916-2.178-2.142-2.79-3.475-1.611-.144-2.964-.618-4.12-1.44zm6.125-1.607a7.146 7.146 0 0 1-.986-.844c.345 2.132 1.154 4.367 2.98 5.666 2.265 1.61 4.653-.007 5.706-1.488.614-.863.98-1.984.45-2.362-.557-.395-1.323-.298-2.526-.104-1.601.256-3.594.576-5.624-.868zm-5.617-5.9c-.93 1.542-1.328 4.363.702 5.807.627.447 1.327.75 2.144.923-.67-2.684-.548-5.372-.49-6.63.011-.257.023-.449.02-.56-.05-.283-.245-.534-.535-.68a.743.743 0 0 0-.34-.083c-.738 0-1.416 1.082-1.5 1.223zm38.51 19.321c2.959 2.104 3.904 6.443 2.248 10.317-1.346 3.148-4.533 6.14-9.656 6.141-.882 0-1.821-.089-2.819-.28a3.48 3.48 0 0 1-2.238-1.475 3.48 3.48 0 0 1-.54-2.626c.177-.918.7-1.714 1.476-2.238a3.48 3.48 0 0 1 2.625-.54c3.19.613 4.32-.825 4.711-1.736.397-.927.23-1.725.098-1.886a3.427 3.427 0 0 1-1.388-2.24 3.506 3.506 0 0 1 1.916-3.73 3.5 3.5 0 0 1 3.567.293zm.329 9.497c1.273-2.978.626-6.257-1.538-7.796a1.42 1.42 0 0 0-1.975.333c-.219.308-.305.683-.242 1.056s.267.699.576.918c1.052.749 1.305 2.67.576 4.376-.4.935-2.085 3.914-7.024 2.964a1.406 1.406 0 0 0-1.061.218 1.406 1.406 0 0 0-.596.905c-.072.372.005.748.218 1.061.212.313.533.525.904.596 5.573 1.072 8.904-1.69 10.162-4.631zm-12.65 10.548c.139.501.16 1.016.064 1.529a3.408 3.408 0 0 1-3.333 2.769c-.194 0-.39-.017-.587-.052-.429-.076-4.249-.842-6.106-4.236-1.254-2.293-1.253-4.99.003-8.017a3.401 3.401 0 0 1 4.44-1.834c.838.347 1.49 1 1.837 1.84a3.375 3.375 0 0 1-.002 2.6c-.472 1.137-.475 1.854-.32 2.146.233.439 1.043.745 1.398.824a3.392 3.392 0 0 1 2.606 2.43zm-1.987 1.142a1.281 1.281 0 0 0-.024-.584 1.339 1.339 0 0 0-1.02-.946c-.078-.016-2.03-.413-2.816-1.887-.519-.98-.44-2.3.236-3.927.134-.323.134-.68 0-1.003a1.3 1.3 0 0 0-1.208-.81c-.515 0-1.003.305-1.213.809-1.002 2.413-1.035 4.504-.1 6.215 1.414 2.584 4.51 3.16 4.641 3.183a1.294 1.294 0 0 0 1.504-1.05zM8.268 39.71c2.264-.52 7.25-.215 9.927 4.672.455.83.56 1.788.294 2.697a3.52 3.52 0 0 1-1.7 2.115 3.521 3.521 0 0 1-2.697.294 3.52 3.52 0 0 1-2.115-1.701c-.76-1.385-2-1.191-2.14-1.164-.87.2-1.793.057-2.579-.409a3.56 3.56 0 0 1-1.649-2.254 3.549 3.549 0 0 1 2.659-4.25zm8.218 6.784c.11-.374.066-.768-.121-1.11-2.077-3.791-5.898-4.04-7.63-3.64a1.46 1.46 0 0 0-.414 2.675c.323.192.703.252 1.07.166.196-.044.44-.073.715-.073 1.107 0 2.712.47 3.701 2.273.188.343.497.59.87.7.375.11.768.066 1.109-.121.343-.188.59-.496.7-.87z"/>
</svg>
