<svg xmlns="http://www.w3.org/2000/svg" width="32" height="60" viewBox="0 0 32 60">
    <path fill="#FFF" fill-rule="nonzero" d="M30.027 12.784h-8.56l3.44-7.118L30.22 3.81a.586.586 0 0 0 .36-.746l-.619-1.772a.585.585 0 0 0-.747-.359l-6.193 2.18a.564.564 0 0 0-.254.194.507.507 0 0 0-.198.258l-4.434 9.218H1.973c-.647 0-1.168.524-1.168 1.169v5.844c0 .645.521 1.17 1.168 1.17h.655L6.58 58.491a1.168 1.168 0 0 0 1.162 1.046h16.242c.598 0 1.1-.451 1.16-1.046l3.952-37.527h.93a1.17 1.17 0 0 0 1.17-1.169v-5.844c0-.645-.524-1.168-1.17-1.168zM3.142 15.121h25.716v3.506H3.142v-3.506zm19.79 42.08H8.792L4.978 20.964h21.768L22.932 57.2z"/>
</svg>
