<svg xmlns="http://www.w3.org/2000/svg" width="60" height="49" viewBox="0 0 60 49">
    <path fill="#FFF" fill-rule="nonzero" d="M30.002 22.326a19.27 19.27 0 0 0-13.721 5.685 1.6 1.6 0 1 0 2.263 2.263 16.094 16.094 0 0 1 11.457-4.747c4.327 0 8.397 1.686 11.458 4.747a1.6 1.6 0 1 0 2.263-2.263 19.272 19.272 0 0 0-13.72-5.685zM30 11.4c-8.102 0-15.72 3.155-21.448 8.886a1.6 1.6 0 1 0 2.263 2.263c5.125-5.125 11.938-7.947 19.185-7.947 7.246 0 14.058 2.822 19.183 7.947.313.313.722.469 1.131.469a1.6 1.6 0 0 0 1.132-2.732c-5.728-5.73-13.345-8.886-21.446-8.886zm29.372.96C51.526 4.513 41.095.192 29.999.192 18.904.192 8.473 4.512.627 12.359a1.6 1.6 0 1 0 2.264 2.263C10.132 7.381 19.759 3.393 29.999 3.393c10.241 0 19.869 3.988 27.11 11.23.313.312.722.468 1.132.468a1.6 1.6 0 0 0 1.132-2.732zM30.01 34.366a6.92 6.92 0 0 0-6.913 6.913 6.92 6.92 0 0 0 6.913 6.913 6.92 6.92 0 0 0 6.913-6.913 6.922 6.922 0 0 0-6.913-6.913zm0 10.624a3.715 3.715 0 0 1-3.711-3.711 3.715 3.715 0 0 1 3.71-3.712 3.715 3.715 0 0 1 3.712 3.712 3.716 3.716 0 0 1-3.711 3.71z"/>
</svg>
