<svg xmlns="http://www.w3.org/2000/svg" width="180" height="48" viewBox="0 0 180 48">
    <g fill="none" fill-rule="evenodd">
        <g fill="#FFF">
            <path d="M6.116 47.127c-.352.207-.736.31-1.15.31a2.24 2.24 0 0 1-1.639-.678 2.224 2.224 0 0 1-.682-1.635c0-.638.228-1.182.682-1.635.455-.452 1.001-.679 1.639-.679.414 0 .797.104 1.146.311.35.207.63.483.84.826l.361-.174c-.24-.41-.57-.739-.986-.986a2.621 2.621 0 0 0-1.361-.371c-.754 0-1.396.265-1.926.795a2.608 2.608 0 0 0-.796 1.913c0 .749.265 1.388.796 1.916.53.528 1.172.793 1.926.793.494 0 .951-.124 1.37-.372.42-.247.747-.578.983-.993l-.36-.174c-.21.348-.49.626-.843.833"/>
            <path d="M4.966 42.501c-.727 0-1.355.26-1.866.771a2.537 2.537 0 0 0-.77 1.852c0 .722.259 1.347.77 1.855.511.51 1.139.768 1.866.768.477 0 .924-.121 1.327-.36.377-.222.681-.519.905-.882l-.208-.1c-.21.328-.49.596-.83.796a2.328 2.328 0 0 1-1.194.322c-.658 0-1.23-.236-1.699-.703a2.314 2.314 0 0 1-.708-1.696c0-.658.238-1.228.708-1.695a2.333 2.333 0 0 1 1.699-.705c.428 0 .828.11 1.19.324.338.2.616.465.827.789l.208-.1a2.683 2.683 0 0 0-.908-.877 2.545 2.545 0 0 0-1.317-.359zm0 5.417a2.724 2.724 0 0 1-1.987-.817 2.7 2.7 0 0 1-.821-1.977c0-.764.276-1.429.82-1.973a2.718 2.718 0 0 1 1.988-.82c.503 0 .976.128 1.404.382.428.254.77.596 1.017 1.017l.047.08-.515.248-.04-.066a2.32 2.32 0 0 0-.81-.797 2.13 2.13 0 0 0-1.103-.3c-.611 0-1.142.221-1.578.655a2.15 2.15 0 0 0-.657 1.574c0 .611.22 1.141.657 1.575.436.433.967.653 1.578.653.397 0 .77-.1 1.107-.299.338-.199.61-.469.812-.803l.04-.067.514.248-.045.08c-.243.426-.584.77-1.014 1.024-.43.254-.906.383-1.414.383zM13.622 46.76a2.227 2.227 0 0 1-1.635.678 2.24 2.24 0 0 1-1.638-.679 2.224 2.224 0 0 1-.683-1.635c0-.638.228-1.182.683-1.635.455-.452 1-.679 1.638-.679.638 0 1.183.227 1.635.682.453.455.68 1 .68 1.632 0 .638-.227 1.183-.68 1.635zm-1.635-4.344c-.754 0-1.396.265-1.926.795a2.61 2.61 0 0 0-.796 1.913c0 .749.266 1.388.796 1.916s1.172.793 1.926.793c.75 0 1.389-.265 1.92-.793.53-.528.795-1.167.795-1.916a2.61 2.61 0 0 0-.796-1.913 2.616 2.616 0 0 0-1.92-.795z"/>
            <path d="M11.987 42.896c-.61 0-1.141.22-1.578.654a2.15 2.15 0 0 0-.657 1.574c0 .611.221 1.141.657 1.575.436.433.967.653 1.578.653.611 0 1.14-.22 1.575-.653.433-.434.653-.964.653-1.575a2.16 2.16 0 0 0-.654-1.571 2.15 2.15 0 0 0-1.574-.657zm0 4.627c-.658 0-1.23-.236-1.699-.703a2.314 2.314 0 0 1-.707-1.696c0-.658.238-1.228.707-1.695a2.333 2.333 0 0 1 1.699-.705c.658 0 1.229.239 1.696.708.467.47.704 1.039.704 1.692 0 .659-.237 1.229-.704 1.696a2.322 2.322 0 0 1-1.696.703zm0-5.022c-.727 0-1.354.26-1.865.771a2.536 2.536 0 0 0-.771 1.852c0 .723.259 1.347.77 1.855.512.51 1.14.768 1.866.768a2.55 2.55 0 0 0 1.86-.768c.51-.509.77-1.133.77-1.855 0-.718-.26-1.34-.771-1.852a2.545 2.545 0 0 0-1.86-.77zm0 5.417A2.723 2.723 0 0 1 10 47.1a2.698 2.698 0 0 1-.821-1.977c0-.764.276-1.429.82-1.973a2.716 2.716 0 0 1 1.987-.82c.77 0 1.435.275 1.98.82.545.544.821 1.209.821 1.973 0 .77-.276 1.435-.821 1.977a2.716 2.716 0 0 1-1.98.817zM21.121 47.057l-3.611-4.541h-.355v5.216h.395v-4.534l3.611 4.534h.355v-5.216h-.395v4.54"/>
            <path d="M21.203 47.646h.227v-5.045h-.223v4.701l-3.739-4.7h-.227v5.044h.223v-4.693l3.739 4.693zm.398.172h-.48l-.026-.032-3.46-4.343v4.375h-.566V42.43h.482l3.484 4.381v-4.38h.566v5.387zM28.302 47.057l-3.611-4.541h-.354v5.216h.394v-4.534l3.612 4.534h.354v-5.216h-.395v4.54"/>
            <path d="M28.384 47.646h.227v-5.045h-.223v4.701l-3.738-4.7h-.227v5.044h.222v-4.693l3.739 4.693zm.398.172h-.48l-.026-.032-3.46-4.343v4.375h-.565V42.43h.481l3.485 4.381v-4.38h.565v5.387zM31.519 47.732h3.584v-.388h-3.19v-1.986h2.715v-.375h-2.715v-2.08h3.19v-.387H31.52v5.216"/>
            <path d="M31.604 47.646h3.413v-.216h-3.19v-2.158h2.716v-.203h-2.716v-2.25h3.19V42.6h-3.413v5.045zm3.585.172h-3.756V42.43h3.756v.56h-3.19v1.908h2.715v.546h-2.716v1.815h3.19v.559zM40.935 47.127c-.353.207-.736.31-1.15.31a2.24 2.24 0 0 1-1.639-.678 2.224 2.224 0 0 1-.682-1.635c0-.638.227-1.182.682-1.635.455-.452 1.001-.679 1.638-.679.415 0 .797.104 1.147.311.35.207.63.483.84.826l.36-.174c-.24-.41-.568-.739-.986-.986a2.621 2.621 0 0 0-1.36-.371c-.754 0-1.396.265-1.927.795a2.61 2.61 0 0 0-.796 1.913c0 .749.266 1.388.796 1.916s1.173.793 1.926.793c.495 0 .952-.124 1.371-.372.42-.247.747-.578.983-.993l-.36-.174c-.21.348-.49.626-.843.833"/>
            <path d="M39.784 42.501c-.726 0-1.354.26-1.865.771a2.536 2.536 0 0 0-.771 1.852c0 .722.26 1.347.77 1.855.512.51 1.14.768 1.866.768.478 0 .924-.121 1.328-.36.377-.222.681-.519.905-.882l-.208-.1a2.47 2.47 0 0 1-.83.796 2.328 2.328 0 0 1-1.195.322c-.658 0-1.23-.236-1.698-.703a2.314 2.314 0 0 1-.708-1.696c0-.658.238-1.228.708-1.695a2.333 2.333 0 0 1 1.698-.705c.429 0 .83.11 1.19.324.339.2.617.465.828.789l.207-.1a2.685 2.685 0 0 0-.907-.877 2.547 2.547 0 0 0-1.318-.359zm0 5.417a2.725 2.725 0 0 1-1.986-.817 2.7 2.7 0 0 1-.821-1.977c0-.764.276-1.429.82-1.973a2.718 2.718 0 0 1 1.987-.82c.504 0 .976.128 1.405.382.427.254.77.596 1.017 1.017l.047.08-.515.248-.04-.066a2.32 2.32 0 0 0-.81-.797 2.132 2.132 0 0 0-1.104-.3c-.61 0-1.141.221-1.578.655a2.15 2.15 0 0 0-.657 1.574c0 .611.222 1.141.657 1.575.437.433.967.653 1.578.653.397 0 .77-.1 1.107-.299.339-.199.612-.469.812-.803l.04-.067.515.248-.045.08c-.243.426-.584.77-1.014 1.024-.43.254-.906.383-1.415.383zM43.817 42.904h1.879v4.828h.395v-4.828h1.885v-.388h-4.16v.388"/>
            <path d="M45.782 47.646h.223v-4.828h1.886v-.217h-3.988v.217h1.879v4.828zm.394.172h-.566V42.99h-1.879v-.56h4.331v.56h-1.886v4.828zM50.238 47.732h.394v-5.216h-.394z"/>
            <path d="M50.323 47.646h.223v-5.045h-.223v5.045zm-.171.172h.565V42.43h-.565v5.388zM57.423 47.057l-3.611-4.541h-.354v5.216h.394v-4.534l3.612 4.534h.353v-5.216h-.394v4.54"/>
            <path d="M57.505 47.646h.227v-5.045h-.224v4.701l-3.737-4.7h-.228v5.044h.223v-4.693l3.739 4.693zm.398.172h-.48l-.027-.032-3.459-4.343v4.375h-.565V42.43h.481l3.484 4.381v-4.38h.566v5.387zM63.046 45.398h1.906v.923a2.276 2.276 0 0 1-1.966 1.117 2.239 2.239 0 0 1-1.638-.679 2.223 2.223 0 0 1-.683-1.635c0-.638.228-1.182.683-1.635.454-.452 1-.679 1.638-.679.37 0 .717.084 1.04.251.323.167.594.395.813.686l.327-.228a2.787 2.787 0 0 0-.953-.806 2.626 2.626 0 0 0-1.227-.297c-.754 0-1.396.265-1.926.795a2.61 2.61 0 0 0-.796 1.913c0 .749.265 1.388.796 1.916a2.63 2.63 0 0 0 1.926.793c.406 0 .785-.09 1.136-.268.353-.179.636-.421.85-.729v.896h.354V45.05h-2.28v.348"/>
            <path d="M62.986 42.501c-.727 0-1.354.26-1.866.771a2.537 2.537 0 0 0-.77 1.852c0 .722.259 1.346.77 1.855.512.51 1.14.768 1.866.768.39 0 .76-.087 1.098-.258.338-.172.613-.408.818-.702l.155-.224v1.083h.184v-2.51h-2.11v.177h1.907v1.032l-.012.02a2.372 2.372 0 0 1-2.04 1.158c-.658 0-1.23-.236-1.699-.703a2.314 2.314 0 0 1-.708-1.696c0-.658.239-1.228.708-1.695a2.332 2.332 0 0 1 1.699-.705c.383 0 .746.088 1.08.26.308.16.573.377.79.646l.187-.13a2.716 2.716 0 0 0-.87-.711 2.56 2.56 0 0 0-1.187-.288zm0 5.417a2.724 2.724 0 0 1-1.987-.817 2.698 2.698 0 0 1-.82-1.977c0-.764.275-1.429.82-1.973a2.718 2.718 0 0 1 1.987-.82c.447 0 .874.102 1.267.306.39.204.72.483.982.83l.053.072-.469.325-.049-.066a2.29 2.29 0 0 0-.783-.66 2.151 2.151 0 0 0-1.001-.242c-.611 0-1.142.22-1.578.654a2.15 2.15 0 0 0-.657 1.574c0 .611.22 1.141.657 1.575.436.433.967.653 1.578.653a2.198 2.198 0 0 0 1.88-1.055v-.813H62.96v-.52h2.452v2.854h-.526v-.733a2.401 2.401 0 0 1-.725.557 2.575 2.575 0 0 1-1.175.276zM74.882 45.786c-.06-.085-.15-.17-.271-.254a3.31 3.31 0 0 0-.31-.197 6.256 6.256 0 0 0-.74-.294l-.374-.117a38.081 38.081 0 0 1-.415-.138 10.037 10.037 0 0 1-.361-.133 1.596 1.596 0 0 1-.328-.164 2.319 2.319 0 0 1-.234-.19.623.623 0 0 1-.17-.248.864.864 0 0 1-.05-.298c0-.29.125-.524.378-.702.251-.178.605-.268 1.06-.268.476 0 .857.095 1.14.285.283.19.424.431.424.725v.034h.388v-.06c0-.393-.183-.716-.548-.97-.366-.254-.834-.381-1.405-.381-.562 0-1.01.124-1.347.374-.337.25-.505.58-.505.99 0 .182.04.349.12.498.08.15.173.272.278.368.104.096.254.19.448.284.194.094.355.163.485.207.129.045.305.1.528.168.218.067.39.12.515.163.125.043.267.101.428.174.16.074.283.146.368.218.084.07.157.161.217.27.06.11.09.231.09.365 0 .29-.13.524-.39.702-.262.179-.629.268-1.101.268-.499 0-.897-.095-1.193-.285-.298-.189-.445-.43-.445-.725v-.027h-.388v.054c0 .397.19.72.568.973.379.251.865.378 1.458.378.58 0 1.043-.124 1.391-.372.348-.247.522-.576.522-.986 0-.134-.024-.261-.07-.381a1.41 1.41 0 0 0-.161-.308"/>
            <path d="M71.26 46.514c.01.354.183.64.53.869.362.241.836.364 1.41.364.559 0 1.01-.12 1.341-.355.327-.233.486-.533.486-.917a.971.971 0 0 0-.064-.35 1.35 1.35 0 0 0-.15-.29 1.034 1.034 0 0 0-.251-.233 3.165 3.165 0 0 0-.303-.192 3.434 3.434 0 0 0-.365-.16 6.653 6.653 0 0 0-.358-.128 35.062 35.062 0 0 1-.792-.255c-.098-.033-.22-.078-.364-.134a1.661 1.661 0 0 1-.346-.174 2.47 2.47 0 0 1-.243-.198.71.71 0 0 1-.193-.28.95.95 0 0 1-.055-.328c0-.318.14-.578.414-.772.265-.188.639-.283 1.11-.283.491 0 .89.1 1.187.299.29.194.445.444.461.744h.218c-.007-.354-.175-.64-.511-.874-.35-.243-.806-.366-1.356-.366-.54 0-.977.12-1.297.358-.316.235-.47.536-.47.921a.96.96 0 0 0 .11.458c.076.14.164.257.26.345.099.09.242.18.428.27.19.092.35.16.476.203.128.045.303.1.525.167.22.067.391.122.517.164.13.045.277.104.437.177.17.08.297.154.387.23.092.078.172.177.237.295.067.122.1.259.1.407 0 .318-.143.577-.428.772-.273.187-.66.282-1.148.282-.514 0-.93-.1-1.24-.298-.301-.191-.463-.44-.482-.738h-.218zm1.94 1.404c-.608 0-1.115-.132-1.505-.392-.403-.267-.607-.619-.607-1.044v-.14h.56v.113c0 .266.132.48.404.653.281.18.668.27 1.148.27.453 0 .807-.084 1.052-.252.238-.163.353-.369.353-.63a.666.666 0 0 0-.079-.324.855.855 0 0 0-.197-.247 1.587 1.587 0 0 0-.349-.205 4.808 4.808 0 0 0-.42-.17 20.324 20.324 0 0 0-.512-.163c-.224-.068-.401-.124-.531-.168a4.763 4.763 0 0 1-.495-.212 1.962 1.962 0 0 1-.468-.298 1.476 1.476 0 0 1-.295-.39 1.131 1.131 0 0 1-.131-.539c0-.437.182-.793.54-1.059.35-.26.82-.39 1.398-.39.586 0 1.075.132 1.453.396.389.27.586.62.586 1.04v.145h-.56v-.119c0-.266-.126-.48-.386-.654-.268-.18-.635-.27-1.093-.27-.434 0-.774.085-1.01.252-.23.163-.342.37-.342.632 0 .097.015.187.045.268.029.079.079.15.148.213.079.073.153.133.226.185.069.049.173.1.309.154.141.055.26.099.357.132a31.014 31.014 0 0 0 .787.253c.082.026.205.07.37.133s.295.12.385.168c.09.05.195.116.319.203.128.09.227.182.292.274.064.09.12.2.17.326.05.132.077.27.077.413 0 .438-.188.793-.558 1.056-.361.257-.846.387-1.441.387zM80.677 45.314c-.277.28-.647.419-1.11.419h-1.605V42.89h1.605c.468 0 .839.137 1.113.411.275.274.412.612.412 1.013 0 .388-.139.72-.415 1zm-1.097-2.798h-2.012v5.216h.394v-1.625h1.618c.584 0 1.05-.174 1.394-.521.346-.349.519-.772.519-1.271 0-.508-.172-.935-.515-1.28-.343-.347-.81-.52-1.398-.52z"/>
            <path d="M78.047 45.647h1.52c.444 0 .787-.128 1.049-.393.262-.264.39-.571.39-.94 0-.38-.126-.691-.386-.952-.256-.256-.611-.386-1.053-.386h-1.52v2.671zm1.52.171h-1.691v-3.013h1.69c.49 0 .885.147 1.175.436.29.29.436.651.436 1.074 0 .41-.148.766-.44 1.06-.291.294-.685.443-1.17.443zm-1.914 1.828h.223v-1.624h1.704c.558 0 1.006-.168 1.333-.497a1.66 1.66 0 0 0 .494-1.21c0-.483-.165-.893-.49-1.22-.325-.328-.775-.494-1.337-.494h-1.927v5.045zm.394.172h-.565V42.43h2.098c.61 0 1.1.183 1.459.544.358.36.54.811.54 1.34 0 .52-.183.969-.544 1.332-.36.363-.85.547-1.455.547h-1.533v1.625zM83.887 46.18l1.465-3.236 1.464 3.237h-2.929zm1.25-3.664l-2.393 5.216h.441l.529-1.176h3.277l.534 1.176h.436l-2.395-5.216h-.428z"/>
            <path d="M84.02 46.095h2.664l-1.332-2.944-1.332 2.944zm2.93.171h-3.196l1.598-3.53 1.597 3.53zm.63 1.38h.247l-2.316-5.045h-.318l-2.316 5.045h.253l.528-1.176h3.388l.535 1.176zm.514.172h-.624l-.535-1.177H83.77l-.529 1.177h-.63l2.473-5.388h.538l2.473 5.388zM93.344 47.127a2.23 2.23 0 0 1-1.15.31 2.239 2.239 0 0 1-1.639-.678 2.223 2.223 0 0 1-.682-1.635c0-.638.227-1.182.682-1.635.455-.452 1.001-.679 1.639-.679.414 0 .797.104 1.146.311.35.207.63.483.84.826l.361-.174a2.75 2.75 0 0 0-.987-.986 2.62 2.62 0 0 0-1.36-.371c-.754 0-1.396.265-1.926.795a2.608 2.608 0 0 0-.796 1.913c0 .749.265 1.388.796 1.916.53.528 1.172.793 1.926.793.494 0 .951-.124 1.37-.372.42-.247.747-.578.983-.993l-.361-.174c-.209.348-.49.626-.842.833"/>
            <path d="M92.193 42.501c-.726 0-1.354.26-1.865.771a2.538 2.538 0 0 0-.77 1.852c0 .722.258 1.346.77 1.855.511.51 1.139.768 1.865.768.478 0 .925-.121 1.328-.36.377-.222.681-.519.905-.882l-.208-.1a2.47 2.47 0 0 1-.83.796 2.327 2.327 0 0 1-1.195.322 2.33 2.33 0 0 1-1.698-.703 2.314 2.314 0 0 1-.708-1.696c0-.658.238-1.228.708-1.695a2.332 2.332 0 0 1 1.698-.705c.429 0 .83.11 1.19.324.34.2.617.465.828.789l.208-.1a2.683 2.683 0 0 0-.908-.877 2.546 2.546 0 0 0-1.318-.359zm0 5.417a2.725 2.725 0 0 1-1.986-.817 2.699 2.699 0 0 1-.821-1.977c0-.764.276-1.429.82-1.973a2.718 2.718 0 0 1 1.987-.82c.504 0 .977.128 1.405.382.428.254.77.596 1.017 1.017l.047.08-.515.248-.04-.066c-.201-.33-.474-.598-.81-.797a2.133 2.133 0 0 0-1.104-.3c-.61 0-1.141.22-1.577.655a2.15 2.15 0 0 0-.657 1.574c0 .611.22 1.141.657 1.575.436.433.966.653 1.577.653.398 0 .77-.1 1.108-.299a2.3 2.3 0 0 0 .812-.803l.04-.067.514.248-.045.08c-.243.426-.584.77-1.014 1.024-.43.254-.906.383-1.415.383zM96.934 47.732h3.585v-.388h-3.19v-1.986h2.714v-.375h-2.715v-2.08h3.19v-.387h-3.584v5.216"/>
            <path d="M97.02 47.646h3.413v-.216h-3.19v-2.158h2.715v-.203h-2.715v-2.25h3.19V42.6h-3.414v5.045zm3.584.172h-3.756V42.43h3.756v.56h-3.19v1.908h2.715v.546h-2.715v1.815h3.19v.559zM107.644 47.452c-.307 0-.552-.081-.732-.241a.737.737 0 0 1-.271-.57.89.89 0 0 1 .097-.41c.065-.127.171-.252.321-.375.15-.122.282-.22.398-.293.116-.074.285-.176.508-.305l1.31 1.404c-.587.527-1.132.79-1.63.79zm-.12-3.284a.938.938 0 0 1-.168-.535c0-.245.087-.45.262-.615a.895.895 0 0 1 .642-.248c.245 0 .453.081.625.244a.778.778 0 0 1 .257.586.848.848 0 0 1-.067.34.938.938 0 0 1-.24.312c-.117.104-.222.19-.318.257s-.244.165-.445.294a4.89 4.89 0 0 1-.548-.635zm3.196 1.404l-.3-.247a8.231 8.231 0 0 1-.857 1.063l-1.25-1.338c.2-.124.354-.224.462-.3a3.77 3.77 0 0 0 .36-.298c.134-.122.231-.253.291-.391.06-.138.09-.292.09-.461 0-.326-.122-.605-.367-.837a1.25 1.25 0 0 0-.89-.347c-.36 0-.665.116-.913.347-.247.232-.37.522-.37.87 0 .254.061.483.187.688.124.205.314.437.568.696l-.047.03a1.02 1.02 0 0 1-.047.027l-.046.024c-.205.12-.372.221-.499.303-.127.083-.264.19-.41.322-.148.13-.259.275-.332.43-.074.157-.11.329-.11.516 0 .316.124.59.374.819.25.23.593.345 1.03.345.616 0 1.248-.294 1.9-.883l.729.782h.54l-.982-1.057c.298-.307.595-.675.89-1.103z"/>
            <path d="M108.26 42.856a.805.805 0 0 0-.584.224.725.725 0 0 0-.234.553c0 .173.051.337.153.486.101.15.266.343.49.574.17-.11.297-.194.383-.254a3.48 3.48 0 0 0 .31-.251.846.846 0 0 0 .218-.281.757.757 0 0 0 .06-.307.69.69 0 0 0-.23-.524.785.785 0 0 0-.566-.22zm-.2 2.057l-.049-.05a4.943 4.943 0 0 1-.558-.648 1.021 1.021 0 0 1-.182-.582.9.9 0 0 1 .288-.678.983.983 0 0 1 .7-.27c.268 0 .498.09.685.267a.864.864 0 0 1 .284.648.927.927 0 0 1-.075.375 1.017 1.017 0 0 1-.26.34 3.623 3.623 0 0 1-.327.264 16.67 16.67 0 0 1-.447.296l-.059.038zm-.111.453c-.193.113-.341.202-.446.268a4.003 4.003 0 0 0-.39.289c-.14.114-.24.23-.298.346a.814.814 0 0 0-.088.373c0 .195.079.36.242.505.163.145.39.219.675.219.458 0 .965-.239 1.509-.71l-1.204-1.29zm-.305 2.171c-.328 0-.593-.088-.79-.262a.823.823 0 0 1-.299-.633c0-.16.036-.312.107-.45.07-.137.185-.272.343-.402.154-.126.287-.224.407-.3.115-.074.286-.176.51-.306l.059-.035 1.417 1.519-.065.058c-.602.538-1.17.811-1.689.811zm.616-5.036c-.342 0-.621.106-.855.325-.231.216-.344.48-.344.807 0 .237.059.454.175.644.12.198.307.427.556.68l.073.074-.135.089a.75.75 0 0 1-.054.03l-.047.024c-.199.117-.364.218-.49.3-.125.08-.26.186-.4.313a1.272 1.272 0 0 0-.311.403 1.111 1.111 0 0 0-.102.479c0 .294.113.541.346.756.232.214.559.322.972.322.591 0 1.21-.29 1.842-.861l.063-.057.76.817h.308l-.904-.972.056-.058c.28-.29.562-.635.836-1.028l-.168-.138c-.253.364-.527.7-.812.997l-.063.066-1.383-1.48.089-.055c.203-.127.353-.224.457-.298a3.69 3.69 0 0 0 .352-.291c.124-.113.215-.235.27-.363.056-.127.084-.27.084-.426 0-.304-.112-.558-.341-.774a1.17 1.17 0 0 0-.83-.325zm-.616 5.417c-.457 0-.823-.124-1.088-.367a1.164 1.164 0 0 1-.402-.882c0-.2.04-.386.119-.552.078-.166.196-.32.351-.458.148-.132.29-.243.422-.33.127-.082.295-.184.501-.305l.048-.024a3.847 3.847 0 0 1-.506-.634 1.385 1.385 0 0 1-.2-.733c0-.371.135-.685.399-.933.263-.245.59-.37.972-.37.368 0 .687.125.948.37.261.249.394.551.394.9 0 .18-.032.346-.098.495-.065.15-.17.29-.311.42a3.751 3.751 0 0 1-.37.304 8.02 8.02 0 0 1-.376.249l1.117 1.195a8.24 8.24 0 0 0 .784-.987l.053-.077.434.356-.044.065a8.663 8.663 0 0 1-.843 1.056l1.063 1.142h-.776l-.697-.749c-.642.563-1.28.849-1.894.849zM121.082 42.516h-.536l-3.363 3.184v-3.184h-.394v5.216h.394v-1.51l1.337-1.272 2.154 2.782h.501l-2.36-3.062 2.267-2.154"/>
            <path d="M120.716 47.646h.285l-2.301-2.985 2.167-2.06h-.286l-3.484 3.298V42.6h-.223v5.045h.223v-1.462l1.433-1.361 2.186 2.823zm.633.172h-.717l-2.122-2.74-1.242 1.18v1.56h-.565V42.43h.565v3.07l3.244-3.07h.784l-2.366 2.248 2.42 3.14zM127.287 47.057l-3.61-4.541h-.355v5.216h.394v-4.534l3.612 4.534h.354v-5.216h-.395v4.54"/>
            <path d="M127.37 47.646h.227v-5.045h-.224v4.701l-3.738-4.7h-.228v5.044h.224v-4.693l3.738 4.693zm.398.172h-.481l-.026-.032-3.459-4.343v4.375h-.566V42.43h.482l3.484 4.381v-4.38h.566v5.387zM134.486 46.76a2.227 2.227 0 0 1-1.635.678 2.238 2.238 0 0 1-1.638-.679 2.223 2.223 0 0 1-.682-1.635c0-.638.227-1.182.682-1.635.455-.452 1-.679 1.638-.679.638 0 1.183.227 1.635.682.453.455.68 1 .68 1.632 0 .638-.227 1.183-.68 1.635zm-1.635-4.344c-.754 0-1.395.265-1.926.795a2.61 2.61 0 0 0-.796 1.913c0 .749.266 1.388.796 1.916a2.63 2.63 0 0 0 1.926.793c.75 0 1.389-.265 1.92-.793.53-.528.795-1.167.795-1.916 0-.744-.265-1.382-.796-1.913a2.616 2.616 0 0 0-1.92-.795z"/>
            <path d="M132.851 42.896c-.61 0-1.141.22-1.578.654a2.15 2.15 0 0 0-.657 1.574c0 .611.221 1.141.657 1.575.436.433.967.653 1.578.653.611 0 1.141-.22 1.575-.653.433-.434.653-.964.653-1.575a2.16 2.16 0 0 0-.654-1.571 2.149 2.149 0 0 0-1.574-.657zm0 4.627c-.658 0-1.23-.236-1.699-.703a2.314 2.314 0 0 1-.707-1.696c0-.658.238-1.228.707-1.695a2.334 2.334 0 0 1 1.7-.705c.657 0 1.228.239 1.695.708.467.47.704 1.039.704 1.692a2.32 2.32 0 0 1-.704 1.696 2.321 2.321 0 0 1-1.696.703zm0-5.022c-.726 0-1.354.26-1.865.771a2.537 2.537 0 0 0-.771 1.852c0 .722.26 1.346.77 1.855.512.51 1.14.768 1.866.768a2.55 2.55 0 0 0 1.86-.768c.51-.509.77-1.133.77-1.855 0-.718-.26-1.34-.771-1.852a2.544 2.544 0 0 0-1.859-.77zm0 5.417a2.724 2.724 0 0 1-1.986-.817 2.698 2.698 0 0 1-.821-1.977c0-.764.276-1.429.82-1.973a2.718 2.718 0 0 1 1.987-.82 2.71 2.71 0 0 1 1.98.82c.545.544.821 1.209.821 1.973 0 .77-.276 1.435-.821 1.977a2.715 2.715 0 0 1-1.98.817zM142.654 47.144l-1.531-4.628h-.389l-1.53 4.628-1.472-4.628h-.428l1.678 5.216h.435l1.512-4.581 1.518 4.581h.435l1.678-5.216h-.428l-1.478 4.628"/>
            <path d="M142.508 47.646h.311l1.624-5.045h-.248l-1.54 4.82-1.594-4.82h-.265l-1.595 4.82-1.532-4.82h-.248l1.624 5.045h.31l1.574-4.768 1.58 4.768zm.436.172h-.56l-1.455-4.394-1.45 4.394h-.559l-1.734-5.388h.609l1.41 4.436 1.468-4.436h.511l1.468 4.437 1.418-4.437h.608l-1.734 5.388zM147.192 42.516h-.395v5.216h3.411v-.388h-3.016v-4.828"/>
            <path d="M146.883 47.646h3.24v-.216h-3.017V42.6h-.223v5.045zm3.411.172h-3.582V42.43h.566v4.829h3.016v.559zM152.51 47.732h3.584v-.388h-3.19v-1.986h2.715v-.375h-2.715v-2.08h3.19v-.387h-3.585v5.216"/>
            <path d="M152.595 47.646h3.414v-.216h-3.19v-2.158h2.714v-.203h-2.715v-2.25h3.19V42.6h-3.413v5.045zm3.585.172h-3.756V42.43h3.756v.56h-3.19v1.908h2.715v.546h-2.715v1.815h3.19v.559zM162.116 46.722c-.363.415-.866.622-1.507.622h-1.626v-4.44h1.626c.641 0 1.144.207 1.507.622.364.414.545.947.545 1.598 0 .651-.181 1.183-.545 1.598zm-1.488-4.206h-2.04v5.216h2.04c.767 0 1.363-.244 1.789-.732.426-.488.639-1.113.639-1.876 0-.758-.213-1.382-.639-1.873-.426-.49-1.022-.735-1.789-.735z"/>
            <path d="M159.068 47.259h1.54c.614 0 1.1-.2 1.443-.593.349-.397.525-.916.525-1.542s-.176-1.145-.525-1.542c-.344-.393-.83-.592-1.442-.592h-1.54v4.269zm1.54.17h-1.71v-4.61h1.71c.665 0 1.194.218 1.572.65.376.429.567.986.567 1.655 0 .67-.19 1.226-.567 1.655-.377.432-.906.65-1.571.65zm-1.934.217h1.954c.737 0 1.318-.236 1.725-.702.41-.47.617-1.082.617-1.82 0-.733-.208-1.345-.618-1.816-.406-.47-.987-.707-1.724-.707h-1.954v5.045zm1.954.172h-2.125V42.43h2.125c.79 0 1.413.257 1.854.765.438.504.66 1.153.66 1.93 0 .78-.222 1.43-.66 1.931-.442.506-1.065.762-1.854.762zM167.95 45.398h1.906v.923a2.276 2.276 0 0 1-1.966 1.117 2.238 2.238 0 0 1-1.638-.679 2.223 2.223 0 0 1-.683-1.635c0-.638.228-1.182.683-1.635.455-.452 1-.679 1.638-.679.37 0 .717.084 1.04.251.323.167.594.395.812.686l.328-.228a2.788 2.788 0 0 0-.953-.806 2.624 2.624 0 0 0-1.227-.297c-.754 0-1.396.265-1.926.795a2.61 2.61 0 0 0-.796 1.913c0 .749.265 1.388.796 1.916a2.63 2.63 0 0 0 1.926.793c.406 0 .785-.09 1.137-.268.352-.179.635-.421.849-.729v.896h.355V45.05h-2.281v.348"/>
            <path d="M167.89 42.501c-.727 0-1.354.26-1.866.771a2.537 2.537 0 0 0-.77 1.852c0 .722.259 1.347.77 1.855.512.51 1.14.768 1.866.768.39 0 .76-.087 1.098-.258.338-.172.613-.408.818-.702l.156-.224v1.083h.183v-2.51h-2.11v.177h1.907v1.032l-.012.02a2.367 2.367 0 0 1-2.04 1.158c-.658 0-1.23-.236-1.699-.703a2.315 2.315 0 0 1-.707-1.696c0-.658.238-1.228.707-1.695a2.333 2.333 0 0 1 1.699-.705c.382 0 .746.088 1.08.26.308.16.573.377.79.646l.187-.13a2.723 2.723 0 0 0-.87-.711 2.56 2.56 0 0 0-1.187-.288zm0 5.417a2.723 2.723 0 0 1-1.987-.817 2.698 2.698 0 0 1-.82-1.977c0-.764.276-1.429.82-1.973a2.718 2.718 0 0 1 1.987-.82c.447 0 .874.102 1.267.306.39.204.72.483.982.83l.053.072-.468.325-.05-.066a2.29 2.29 0 0 0-.783-.66 2.154 2.154 0 0 0-1.001-.242c-.61 0-1.142.22-1.578.654a2.15 2.15 0 0 0-.657 1.574c0 .611.22 1.141.657 1.575.436.433.967.653 1.578.653a2.195 2.195 0 0 0 1.881-1.055v-.813h-1.907v-.52h2.452v2.854h-.526v-.733c-.197.226-.44.412-.725.557a2.576 2.576 0 0 1-1.175.276zM176.37 42.904v-.388h-3.585v5.216h3.584v-.388h-3.19v-1.986h2.715v-.375h-2.715v-2.08h3.19"/>
            <path d="M172.87 47.646h3.414v-.216h-3.19v-2.158h2.715v-.203h-2.716v-2.25h3.19V42.6h-3.412v5.045zm3.585.172h-3.756V42.43h3.756v.56h-3.19v1.908h2.715v.546h-2.715v1.815h3.19v.559z"/>
        </g>
        <g fill="#E7AF35">
            <path d="M58.584 24.163c-.536.566-1.189.84-1.996.84-.861 0-1.534-.268-2.057-.82-.537-.567-.799-1.325-.799-2.317 0-.97.264-1.723.806-2.306.522-.56 1.192-.833 2.05-.833.815 0 1.447.271 1.99.854.555.596.825 1.343.825 2.285 0 .964-.268 1.716-.819 2.297zm-1.996-6.493c-1.157 0-2.098.39-2.824 1.17-.726.78-1.09 1.788-1.09 3.026 0 1.263.364 2.278 1.09 3.045.726.766 1.667 1.15 2.824 1.15 1.102 0 2.024-.39 2.763-1.17.74-.78 1.11-1.789 1.11-3.025 0-1.211-.37-2.213-1.11-3.006-.74-.793-1.66-1.19-2.763-1.19z"/>
            <path d="M64.333 29.389c-2.151 2.03-4.746 3.045-7.785 3.045-3.066 0-5.661-1.015-7.786-3.045-2.125-2.03-3.187-4.538-3.187-7.523 0-2.986 1.062-5.494 3.187-7.524 2.125-2.03 4.72-3.046 7.786-3.046 3.039 0 5.634 1.015 7.785 3.046 2.152 2.03 3.227 4.538 3.227 7.524 0 2.985-1.075 5.492-3.227 7.523zm-7.785-19.15c-3.333 0-6.198 1.123-8.516 3.338-2.332 2.229-3.514 5.017-3.514 8.289 0 3.27 1.182 6.058 3.513 8.287 2.319 2.215 5.184 3.339 8.517 3.339 3.303 0 6.167-1.122 8.511-3.335 2.361-2.228 3.559-5.018 3.559-8.291 0-3.274-1.198-6.064-3.559-8.293-2.344-2.212-5.208-3.334-8.511-3.334zM86.279 17.912h-1.654c-1.587 0-2.784.384-3.59 1.15-.807.766-1.21 1.996-1.21 3.691v9.197h-6.94V11.78h6.334v2.139c1.291-1.641 2.985-2.462 5.083-2.462.726 0 1.385.108 1.977.323v6.132zm.36-7.126a6.836 6.836 0 0 0-2.337-.386c-1.53 0-2.885.382-4.053 1.14a1.057 1.057 0 0 0-1.03-.817h-6.334c-.583 0-1.057.473-1.057 1.057v20.17c0 .584.474 1.058 1.057 1.058h6.94c.583 0 1.056-.474 1.056-1.058v-9.197c0-1.385.297-2.37.882-2.925.6-.57 1.563-.859 2.862-.859h1.654c.583 0 1.057-.473 1.057-1.057V11.78c0-.445-.279-.842-.697-.994zM105.864 31.95L98.683 21.3v10.65h-6.939V1.695h6.939V19.93l6.293-8.149h8.028l-6.939 8.996 7.423 11.174h-7.624zm1.501-11.128l6.476-8.396a1.057 1.057 0 0 0-.837-1.703h-8.028c-.327 0-.637.152-.837.411L99.74 16.83V1.695c0-.584-.473-1.057-1.057-1.057h-6.939c-.584 0-1.057.473-1.057 1.057V31.95c0 .584.473 1.058 1.057 1.058h6.939c.584 0 1.057-.474 1.057-1.058v-7.19l5.247 7.782c.196.29.525.466.877.466h7.624a1.057 1.057 0 0 0 .88-1.642l-7.003-10.544zM153.467 17.912h-1.654c-1.587 0-2.783.384-3.59 1.15-.807.766-1.21 1.996-1.21 3.691v9.197h-6.94V11.78h6.334v2.139c1.292-1.641 2.986-2.462 5.083-2.462.726 0 1.385.108 1.977.323v6.132zm.36-7.126a6.836 6.836 0 0 0-2.337-.386c-1.53 0-2.885.382-4.053 1.14a1.057 1.057 0 0 0-1.03-.817h-6.333c-.584 0-1.057.473-1.057 1.057v20.17c0 .584.473 1.058 1.057 1.058h6.939c.583 0 1.057-.474 1.057-1.058v-9.197c0-1.385.296-2.37.88-2.925.6-.57 1.564-.859 2.863-.859h1.654c.584 0 1.057-.473 1.057-1.057V11.78c0-.445-.278-.842-.696-.994zM169.825 24.163c-.536.566-1.19.84-1.996.84-.861 0-1.534-.268-2.057-.82-.537-.567-.799-1.325-.799-2.317 0-.97.264-1.723.806-2.306.522-.56 1.192-.833 2.05-.833.814 0 1.447.271 1.99.854.555.596.825 1.343.825 2.285 0 .964-.267 1.716-.82 2.297zm-1.996-6.493c-1.157 0-2.098.39-2.824 1.17-.726.78-1.09 1.788-1.09 3.026 0 1.263.364 2.278 1.09 3.045.726.766 1.667 1.15 2.824 1.15 1.102 0 2.024-.39 2.763-1.17.74-.78 1.11-1.789 1.11-3.025 0-1.211-.37-2.213-1.11-3.006-.74-.793-1.66-1.19-2.763-1.19z"/>
            <path d="M175.574 29.389c-2.151 2.03-4.747 3.045-7.785 3.045-3.066 0-5.662-1.015-7.786-3.045-2.125-2.03-3.187-4.538-3.187-7.523 0-2.986 1.062-5.494 3.187-7.524 2.124-2.03 4.72-3.046 7.786-3.046 3.038 0 5.634 1.015 7.785 3.046 2.151 2.03 3.227 4.538 3.227 7.524 0 2.985-1.076 5.492-3.227 7.523zm.725-15.816c-2.343-2.212-5.207-3.334-8.51-3.334-3.333 0-6.198 1.123-8.516 3.338-2.332 2.229-3.514 5.017-3.514 8.289 0 3.27 1.182 6.058 3.513 8.287 2.319 2.215 5.184 3.339 8.517 3.339 3.303 0 6.167-1.122 8.51-3.335 2.362-2.228 3.56-5.018 3.56-8.291 0-3.274-1.198-6.065-3.56-8.293zM134.828 22.897H121.71l.004.534c.022 2.344 1.614 5.082 6.033 5.082 1.823 0 3.627-.487 5.372-1.45l1.534 3.385c-2.353 1.669-4.998 2.515-7.869 2.515-3.357 0-6.147-1.026-8.291-3.048-2.136-2.015-3.22-4.588-3.22-7.65 0-3.008 1.057-5.57 3.141-7.612 2.087-2.047 4.701-3.084 7.77-3.084 3.077 0 4.71 1.068 6.357 2.803.141.14 3.361 3.42 2.287 8.525zm.933.657c1.486-5.932-2.314-9.773-2.464-9.922-1.779-1.873-3.669-3.12-7.112-3.12-3.356 0-6.22 1.139-8.511 3.386-2.294 2.249-3.458 5.064-3.458 8.368 0 3.364 1.195 6.196 3.55 8.418 2.348 2.214 5.382 3.336 9.018 3.336 3.245 0 6.221-1.002 8.845-2.977l.339-.255-2.374-5.237-.51.31c-1.735 1.058-3.531 1.595-5.337 1.595-3.915 0-4.766-2.255-4.936-3.501h12.85l.1-.4z"/>
            <path d="M122.74 19.051c.212-.453.495-.821.845-1.1a2.71 2.71 0 0 1 1.751-.603c.71 0 1.297.205 1.792.628.34.29.56.645.665 1.075h-5.053zm5.074-1.88c-.684-.584-1.518-.88-2.478-.88-.904 0-1.714.28-2.41.833-.687.547-1.175 1.326-1.45 2.315l-.186.67h7.646l-.016-.545c-.03-.985-.401-1.79-1.106-2.392zM43.595 8.851l-8.022 18.218a4.852 4.852 0 0 0-.378-1.22l-3.8-7.405 5.536-12.572a3.655 3.655 0 0 1 3.334-2.162 3.62 3.62 0 0 1 1.486.318 3.625 3.625 0 0 1 1.92 2.028c.35.91.322 1.902-.076 2.795zM34.33 29.119a3.623 3.623 0 0 1-1.891 2.055 3.61 3.61 0 0 1-1.534.34c-.456 0-.898-.094-1.31-.255a3.652 3.652 0 0 1-1.742-4.77l2.976-6.759 3.385 6.598c.41.884.452 1.876.116 2.79zM26.776 13.36c.137-.297.242-.604.315-.915l3.096 6.034-3.332 7.567c-.179.4-.292.812-.354 1.226l-3.431-6.688 3.706-7.224zm-8.2 13.591a4.788 4.788 0 0 0-.299-.903l-3.434-7.798 2.981-5.81c.074.317.18.632.323.94l3.696 7.204-3.267 6.367zm-1.22 2.332c-.072.186-.166.358-.264.527a3.662 3.662 0 0 1-3.085 1.704 3.61 3.61 0 0 1-1.533-.34 3.622 3.622 0 0 1-1.892-2.055 3.615 3.615 0 0 1 .107-2.772l3.512-6.846 3.078 6.99c.397.89.425 1.881.076 2.792zM1.458 6.056a3.624 3.624 0 0 1 1.92-2.028 3.619 3.619 0 0 1 1.487-.318c1.439 0 2.748.85 3.333 2.16l5.436 12.344-3.927 7.654c-.13.279-.229.566-.301.857L1.535 8.849a3.627 3.627 0 0 1-.076-2.793zm24.336 6.825l-3.339 6.508-3.328-6.488a3.637 3.637 0 0 1-.125-2.76l.16-.312a3.662 3.662 0 0 1 3.293-2.113c1.41.008 2.7.835 3.303 2.132l.15.295c.323.906.281 1.884-.114 2.738zm18.897-7.215a4.71 4.71 0 0 0-2.496-2.634 4.708 4.708 0 0 0-1.931-.414 4.75 4.75 0 0 0-4.332 2.812l-5.18 11.763-3.829-7.464a4.712 4.712 0 0 0-2.455-2.666 4.71 4.71 0 0 0-1.992-.44h-.041c-.691 0-1.362.148-1.993.44a4.715 4.715 0 0 0-2.429 2.616l-3.737 7.284-5.08-11.535a4.748 4.748 0 0 0-4.331-2.81c-.668 0-1.317.14-1.931.414A4.71 4.71 0 0 0 .439 5.666 4.71 4.71 0 0 0 .537 9.29l9.08 20.62a4.749 4.749 0 0 0 4.332 2.81 4.7 4.7 0 0 0 1.93-.413 4.706 4.706 0 0 0 2.343-2.288c.025-.048.056-.092.08-.142l4.154-8.099 4.146 8.08a4.747 4.747 0 0 0 2.543 2.395c.036.017.07.037.107.054a4.7 4.7 0 0 0 1.93.413 4.75 4.75 0 0 0 4.333-2.812l9.078-20.616a4.71 4.71 0 0 0 .099-3.627z"/>
        </g>
    </g>
</svg>
