<svg xmlns="http://www.w3.org/2000/svg" width="30" height="26" viewBox="0 0 30 26">
    <path fill="#F0B323" fill-rule="nonzero" d="M20.058.573L22.544 4.3h3.728C28.332 4.3 30 6.008 30 8.068v13.65a3.711 3.711 0 0 1-3.728 3.71H3.902a3.727 3.727 0 0 1-3.727-3.729V8.05c0-2.06 1.668-3.748 3.728-3.748H7.63L10.116.573h9.942zm-1.286 2.485h.043-7.369L9.7 5.68 8.96 6.786H3.903c-.686 0-1.243.567-1.243 1.262V21.7c0 .686.557 1.243 1.243 1.243h22.369a1.22 1.22 0 0 0 1.243-1.223V8.068c0-.695-.57-1.282-1.243-1.282h-5.058l-.717-1.106-1.725-2.622zM15.087 8.03a6.214 6.214 0 1 1 0 12.427 6.214 6.214 0 0 1 0-12.427zm0 2.486a3.732 3.732 0 0 0-3.728 3.728 3.732 3.732 0 0 0 3.728 3.728 3.733 3.733 0 0 0 3.728-3.728 3.732 3.732 0 0 0-3.728-3.728z"/>
</svg>
