<svg xmlns="http://www.w3.org/2000/svg" width="22" height="26" viewBox="0 0 22 26">
    <path fill="#7C878E" fill-rule="nonzero" d="M11.188 22.61a40.34 40.34 0 0 0 3.025-2.69c1.06-1.049 1.958-2.078 2.642-3.054 1.027-1.466 1.675-2.948 2.025-4.385.216-.886.276-1.513.276-2.04A8.12 8.12 0 0 0 11 2.278a8.156 8.156 0 0 0-8.156 8.157c0 2.838 1.68 5.945 4.541 9.016a33 33 0 0 0 3.604 3.318l.199-.159zm9.968-12.175c0 .378.014 3.758-2.664 7.579C15.815 21.834 11 25.278 11 25.278S.844 18.324.844 10.435C.844 4.825 5.39.278 11 .278c5.61 0 10.156 4.487 10.156 10.157z"/>
</svg>
