<svg xmlns="http://www.w3.org/2000/svg" width="42" height="43" viewBox="0 0 42 43">
    <path fill="#131E29" fill-rule="nonzero" d="M21 42.5c-11.598 0-21-9.402-21-21S9.402.5 21 .5s21 9.402 21 21-9.402 21-21 21zm0-2.5c10.217 0 18.5-8.283 18.5-18.5S31.217 3 21 3 2.5 11.283 2.5 21.5 10.783 40 21 40zm-4.691-28.975c1.18-.223 1.952 1.107 2.54 2.025.573.89 1.278 1.937.993 3.097-.158.65-.746 1.005-1.19 1.39-.44.378-1.108.726-1.27 1.309-.265.945.314 1.937.673 2.501a14.37 14.37 0 0 0 3.058 3.454c.609.499 1.454 1.164 2.301.993 1.266-.256 1.6-1.817 2.978-2.025 1.311-.198 2.199.753 2.94 1.39.713.616 1.864 1.406 1.786 2.462-.046.607-.533.984-.955 1.35-.429.374-.805.795-1.23 1.071-1.026.67-2.286.999-3.732.954-1.418-.044-2.548-.526-3.573-1.072-2.004-1.07-3.589-2.573-5.08-4.25-1.469-1.647-2.824-3.597-3.574-5.754-.935-2.694-.44-5.46 1.073-7.186.256-.293.661-.6 1.031-.914.37-.315.712-.698 1.23-.795z"/>
</svg>
