<svg xmlns="http://www.w3.org/2000/svg" width="42" height="53" viewBox="0 0 42 53">
    <path fill="#FFF" fill-rule="nonzero" d="M24.628 12.383h-12.18v37.359h26.754V26.825H25.878c-.69 0-1.25-.56-1.25-1.25V12.383zm2.5 1.256v10.686h10.91L27.128 13.64zM2.798 3.442v41.972a1.25 1.25 0 1 1-2.5 0V2.192c0-.69.56-1.25 1.25-1.25h22.127a1.25 1.25 0 1 1 0 2.5H2.798zm7.15 7.69c0-.69.56-1.25 1.25-1.25h15.158c.327 0 .641.13.875.358l14.095 13.806c.24.236.376.557.376.893v26.053c0 .69-.56 1.25-1.25 1.25H11.198c-.69 0-1.25-.56-1.25-1.25v-39.86z"/>
</svg>
