<svg xmlns="http://www.w3.org/2000/svg" width="22" height="25" viewBox="0 0 22 25">
    <path fill="#000" fill-rule="nonzero" d="M21.154 3.624h-5.4L14.294.669a.844.844 0 0 0-.756-.474H8.462a.846.846 0 0 0-.758.474L6.246 3.624h-5.4A.852.852 0 0 0 0 4.481c0 .473.38.857.846.857H17.77v17.143H4.231V7.91a.852.852 0 0 0-.846-.857.852.852 0 0 0-.847.857v15.428c0 .474.38.857.847.857h15.23a.85.85 0 0 0 .847-.857v-18h1.692A.851.851 0 0 0 22 4.481a.851.851 0 0 0-.846-.857zM8.984 1.91h4.032l.846 1.714H8.138l.846-1.714zm.324 17.143c0 .474-.38.857-.846.857a.851.851 0 0 1-.847-.857V10.48c0-.473.38-.857.847-.857.467 0 .846.384.846.857v8.572zm5.077 0a.85.85 0 0 1-.847.857.85.85 0 0 1-.846-.857V10.48c0-.473.379-.857.846-.857.468 0 .847.384.847.857v8.572z"/>
</svg>
