<svg xmlns="http://www.w3.org/2000/svg" width="71" height="81" viewBox="0 0 71 81">
    <path fill="#131E29" fill-rule="nonzero" d="M45.045 39.172l.255.255c.382.383.892.51 1.402.51.51 0 1.02-.255 1.403-.51l5.482-5.484c1.276.893 2.933 1.275 4.336 1.275 2.167 0 4.207-.765 5.865-2.423 2.805-2.806 3.187-7.015 1.147-10.33l5.483-5.485c.383-.383.51-.893.51-1.403s-.255-1.02-.51-1.403h-.382c-3.316-3.316-7.778-5.23-12.496-5.23-2.167 0-4.208.383-6.12 1.149l-7.013-7.015c-2.932-2.934-7.523-2.934-10.455 0-1.403 1.403-2.168 3.188-2.168 5.229 0 2.04.765 3.826 2.168 5.23l2.55 2.55-22.95 22.957c-1.276-.765-2.679-1.275-4.336-1.275a8.272 8.272 0 0 0-8.288 8.29 8.272 8.272 0 0 0 8.288 8.29h.637l16.449 16.453h-5.483c-4.463 0-8.16 3.699-8.16 8.163 0 1.02.892 1.913 1.912 1.913h38.251c1.02 0 1.913-.893 1.913-1.913v-.383c-.127-4.336-3.825-7.78-8.16-7.78H41.73L17.504 46.569v-.51c0-1.658-.51-3.188-1.275-4.464l22.95-22.957 1.658 1.658c-.765 1.913-1.148 4.081-1.148 6.122.128 4.974 2.04 9.438 5.356 12.754zM9.215 50.778c-2.55 0-4.462-2.04-4.462-4.464 0-2.423 2.04-4.464 4.463-4.464 2.55 0 4.463 2.04 4.463 4.464 0 2.423-2.04 4.464-4.463 4.464zm37.36 23.978c1.657 0 3.187 1.02 3.952 2.423h-33.66c.764-1.403 2.167-2.423 3.952-2.423h25.756zM36.247 70.93h-4.718L13.806 53.2a9.806 9.806 0 0 0 2.295-2.295L36.247 70.93zM61.11 30.117c-1.275 1.275-3.187 1.658-4.717 1.02l5.737-5.74c.51 1.659.255 3.444-1.02 4.72zM57.54 12.77c3.188 0 6.248 1.02 8.67 3.06L46.702 35.347c-2.04-2.424-3.06-5.485-3.06-8.673 0-3.699 1.403-7.142 4.08-9.82 2.678-2.68 6.12-4.082 9.818-4.082zm-20.91-2.04c-.638-.638-1.02-1.531-1.02-2.552 0-.892.382-1.785 1.02-2.55 1.402-1.403 3.57-1.403 4.972 0l6.12 6.122c-1.02.637-1.912 1.403-2.805 2.295-.892.893-1.657 1.786-2.295 2.806L36.63 10.73z"/>
</svg>
