<svg xmlns="http://www.w3.org/2000/svg" width="32" height="32" viewBox="0 0 32 32">
    <g fill="#7C878E" fill-rule="nonzero">
        <path d="M18.31 9.128a2.362 2.362 0 0 0-1.792-1.99V.36H15.43v6.779a2.362 2.362 0 0 0-1.793 1.989c-5.185 1.081-9.093 5.686-9.093 11.188 0 6.303 5.128 11.43 11.43 11.43s11.43-5.127 11.43-11.43c0-5.502-3.908-10.107-9.093-11.188zm4.108 8.297c-.97-.186-2.03-.326-3.134-.419a30.32 30.32 0 0 0-.419-3.133c.98.185 1.9.462 2.736.816.354.837.631 1.756.817 2.736zm.6-2.017c1.383.837 2.412 1.916 2.927 3.133-.634-.338-1.446-.626-2.382-.862a15.16 15.16 0 0 0-.545-2.27zm-.331 4.908c0 .599-.036 1.186-.1 1.757a26.81 26.81 0 0 1-3.227.462 40.86 40.86 0 0 0 0-4.437c1.238.107 2.315.269 3.228.462.063.57.099 1.158.099 1.756zm-6.713 2.359c-.812 0-1.577-.023-2.296-.063a41.403 41.403 0 0 1-.063-2.296c0-.812.023-1.577.063-2.295.72-.04 1.484-.063 2.296-.063.812 0 1.577.022 2.296.063a41.389 41.389 0 0 1 0 4.591c-.72.04-1.484.063-2.296.063zm2.218 1.027a26.894 26.894 0 0 1-.461 3.228c-.572.064-1.158.099-1.757.099s-1.185-.035-1.757-.099a26.877 26.877 0 0 1-.462-3.228 40.873 40.873 0 0 0 4.437 0zm-8.93-3.386c0-.598.035-1.185.098-1.756.913-.193 1.99-.355 3.228-.462a40.484 40.484 0 0 0 0 4.437 26.894 26.894 0 0 1-3.228-.462 15.897 15.897 0 0 1-.099-1.757zm4.493-3.386c.107-1.238.27-2.315.462-3.228a15.902 15.902 0 0 1 1.757-.098c.599 0 1.185.035 1.757.098.193.913.355 1.99.461 3.228a40.85 40.85 0 0 0-4.437 0zm4.857-4.203c-.237-.936-.524-1.749-.863-2.382 1.217.514 2.296 1.544 3.134 2.927a15.227 15.227 0 0 0-2.271-.545zm-1.155-.144c-.486-.043-.98-.068-1.483-.068-.503 0-.997.025-1.483.068.486-1.725 1.073-2.608 1.483-2.608.41 0 .997.883 1.483 2.608zm-3.258-2.238c-.339.633-.626 1.446-.863 2.382-.791.128-1.552.311-2.27.545.837-1.383 1.916-2.412 3.133-2.927zm-1.116 3.528a30.11 30.11 0 0 0-.419 3.133 30.306 30.306 0 0 0-3.133.42c.185-.98.462-1.9.816-2.737a13.457 13.457 0 0 1 2.736-.816zm-4.698 3.805c-.936.237-1.749.525-2.382.863.514-1.217 1.544-2.296 2.927-3.133-.234.719-.417 1.48-.545 2.27zm-.144 1.155c-.043.486-.068.98-.068 1.483 0 .503.025.997.068 1.483-1.726-.486-2.608-1.072-2.608-1.483 0-.41.882-.997 2.608-1.483zm.144 4.121c.128.792.31 1.552.545 2.27-1.383-.836-2.412-1.915-2.927-3.132.634.337 1.446.625 2.382.862zm1.145.253c.97.187 2.03.327 3.134.42.093 1.104.233 2.164.419 3.133-.98-.186-1.9-.462-2.737-.816a13.494 13.494 0 0 1-.816-2.737zm3.806 4.699c.237.935.525 1.748.863 2.381-1.217-.514-2.296-1.544-3.134-2.927.72.235 1.48.417 2.271.546zm1.155.144c.486.043.98.067 1.483.067.503 0 .997-.024 1.483-.067-.486 1.725-1.073 2.607-1.483 2.607-.41 0-.997-.882-1.483-2.607zm3.258 2.237c.339-.633.626-1.446.863-2.381a15.172 15.172 0 0 0 2.27-.546c-.837 1.383-1.916 2.413-3.133 2.927zm1.116-3.527c.186-.97.326-2.03.42-3.133a30.306 30.306 0 0 0 3.133-.42c-.186.98-.463 1.9-.817 2.737-.836.353-1.756.63-2.736.816zm4.698-3.806c.936-.236 1.748-.524 2.382-.862-.515 1.217-1.544 2.296-2.927 3.133.234-.719.417-1.48.545-2.27zm.144-1.155c.043-.486.068-.98.068-1.483 0-.503-.025-.997-.068-1.483 1.725.486 2.608 1.073 2.608 1.483 0 .41-.883.997-2.608 1.483zm1.558-6.018c-.78-.742-1.745-1.389-2.85-1.905-.517-1.106-1.163-2.07-1.906-2.85a10.406 10.406 0 0 1 4.756 4.755zm-9.291-7.62c.529 0 .982.325 1.173.786a11.487 11.487 0 0 0-2.346 0 1.27 1.27 0 0 1 1.173-.786zm-4.535 2.864c-.743.78-1.389 1.745-1.906 2.85-1.105.517-2.07 1.164-2.85 1.906a10.411 10.411 0 0 1 4.756-4.756zM6.683 24.85c.78.743 1.745 1.39 2.85 1.906.517 1.105 1.163 2.07 1.906 2.85a10.406 10.406 0 0 1-4.756-4.756zm13.826 4.756c.743-.78 1.389-1.745 1.905-2.85 1.106-.517 2.07-1.163 2.851-1.906a10.406 10.406 0 0 1-4.756 4.756zM3.489 7.365l1.118-2.044L6.65 4.202 4.607 3.084 3.489 1.04 2.37 3.084.326 4.202l2.045 1.119 1.118 2.044zm-.317-3.479l.317-.578.316.578.578.317-.578.316-.316.578-.317-.578-.578-.316.578-.317z"/>
        <path d="M27.766 15.1l1.364-2.492 2.492-1.363-2.492-1.363-1.364-2.492-1.363 2.492-2.492 1.363 2.492 1.363 1.363 2.493zm-.56-4.416l.56-1.026.561 1.026 1.026.561-1.026.562-.56 1.025-.562-1.025-1.026-.562 1.026-.561zM2.367 26.439l-.721 1.32-1.32.721 1.32.722.721 1.32.722-1.32 1.32-.722-1.32-.721z"/>
    </g>
</svg>
