<svg xmlns="http://www.w3.org/2000/svg" width="21" height="15" viewBox="0 0 21 15">
    <path fill="#7C878E" fill-rule="nonzero" d="M20.226 2.73a.59.59 0 0 1 0 .088v9.868a1.39 1.39 0 0 1-1.39 1.39H1.617a1.39 1.39 0 0 1-1.39-1.39V1.714c0-.767.623-1.39 1.39-1.39h17.22c.766 0 1.389.623 1.389 1.39V2.73zM1.404 3.78v8.906c0 .117.096.213.213.213h17.22a.213.213 0 0 0 .212-.213v-8.8L10.226 9.88l-8.822-6.1zm0-1.43l8.828 6.104 8.817-5.99v-.75a.213.213 0 0 0-.213-.213H1.617a.214.214 0 0 0-.213.213v.637z"/>
</svg>
