<svg xmlns="http://www.w3.org/2000/svg" width="25" height="24" viewBox="0 0 25 24">
    <path fill="#7C878E" fill-rule="nonzero" d="M22.315 10.957l-.278 1.394-1.67 8.926a3.288 3.288 0 0 1-3.253 2.696H7.802a3.307 3.307 0 0 1-3.253-2.694l-1.668-8.92-.258-1.318-.951.888a.992.992 0 0 1-1.354-1.45L10.856.642a2.475 2.475 0 0 1 3.287.017l10.543 9.79a.992.992 0 1 1-1.35 1.454l-1.02-.947zM20.61 9.372L12.812 2.13a.48.48 0 0 0-.623-.019L4.332 9.445l.497 2.541 1.67 8.93a1.324 1.324 0 0 0 1.303 1.073h9.312c.652 0 1.186-.444 1.303-1.075l1.672-8.94.52-2.602z" opacity=".9"/>
</svg>
