<svg xmlns="http://www.w3.org/2000/svg" width="21" height="26" viewBox="0 0 21 26">
    <path fill="#7C878E" fill-rule="nonzero" d="M11.074 25.313a.982.982 0 0 1-1.108.03 14.286 14.286 0 0 1-.435-.296 30.49 30.49 0 0 1-4.429-3.826C2.018 17.977.148 14.487.148 10.851.148 5.133 4.782.5 10.498.5c5.72 0 10.35 4.625 10.35 10.353-.009 3.317-1.871 6.72-4.941 10.074a36.336 36.336 0 0 1-4.404 4.062c-.201.156-.347.265-.429.324zm.253-2.712a34.397 34.397 0 0 0 3.131-3c2.77-3.027 4.419-6.039 4.427-8.75 0-4.641-3.75-8.387-8.387-8.387a8.386 8.386 0 0 0-8.386 8.386c0 3.037 1.643 6.104 4.414 9.018a28.548 28.548 0 0 0 3.943 3.436c.264-.209.552-.444.858-.703zm-1.81-14.15a.982.982 0 1 1 1.963 0v2.162a.982.982 0 1 1-1.964 0V8.451z"/>
</svg>
