<svg xmlns="http://www.w3.org/2000/svg" width="27" height="24" viewBox="0 0 27 24">
    <path fill="#7C878E" fill-rule="nonzero" d="M1.058 13.556a18.244 18.244 0 0 1-.274-1.765c-.051-.477-.075-.958-.073-1.428-.002-.48.022-.961.073-1.438.062-.592.153-1.18.274-1.767A7.865 7.865 0 0 1 7.46 1.005a36.218 36.218 0 0 1 12.059 0A7.866 7.866 0 0 1 25.92 7.16c.12.585.211 1.174.274 1.765a13 13 0 0 1 .072 1.431c.002.48-.024.961-.075 1.436a18.25 18.25 0 0 1-.275 1.766 7.866 7.866 0 0 1-6.399 6.156 36.08 36.08 0 0 1-6.008.498h-.2c-2.209 2.099-4.687 3.097-7.204 3.286a1.612 1.612 0 0 1-1.577-.981c-.267-.63-.105-1.36.372-1.788.426-.421.78-.907 1.049-1.437a7.858 7.858 0 0 1-4.891-5.735zm11.127 4.951c.189-.19.446-.297.714-.297h.61c1.902.002 3.8-.155 5.674-.469a5.861 5.861 0 0 0 4.768-4.587c.108-.521.189-1.045.245-1.575.044-.405.065-.812.064-1.226.002-.407-.019-.814-.062-1.22a16.241 16.241 0 0 0-.243-1.57 5.862 5.862 0 0 0-4.772-4.585 34.207 34.207 0 0 0-11.39 0 5.861 5.861 0 0 0-4.77 4.583 16.253 16.253 0 0 0-.244 1.573c-.043.405-.064.812-.062 1.229-.002.407.019.813.062 1.218.055.528.137 1.052.244 1.57a5.858 5.858 0 0 0 4.473 4.52 1 1 0 0 1 .745 1.26 7.476 7.476 0 0 1-1.248 2.443c1.781-.332 3.563-1.224 5.192-2.867zm5.95-11.75c.554 0 1.003.448 1.003 1 0 .553-.45 1-1.003 1h-9.43a1.002 1.002 0 0 1-1.003-1c0-.552.45-1 1.003-1h9.43zm0 4.801c.554 0 1.003.448 1.003 1 0 .553-.45 1-1.003 1h-9.43a1.002 1.002 0 0 1-1.003-1c0-.552.45-1 1.003-1h9.43z"/>
</svg>
