<svg xmlns="http://www.w3.org/2000/svg" width="21" height="21" viewBox="0 0 21 21">
    <path fill="#F0B323" fill-rule="nonzero" d="M1.962 6.347L3.11 7.495h-.728c-.16 0-.291.131-.291.29v5.37c0 .159.13.29.29.29h2.125a1.884 1.884 0 0 1-.044-.4V8.845l1.208 1.208v2.99c0 .129.057.29.061.293l.032.03 5.646 5.628c.437.443.659.339.659-.33v-2.213l1.208 1.208v1.004c0 1.713-1.504 2.421-2.724 1.182l-5.21-5.193h-2.96a1.5 1.5 0 0 1-1.5-1.499V7.786a1.5 1.5 0 0 1 1.08-1.44zm5.924-2.602l2.688-2.68c1.112-1.129 2.702-.575 2.702 1.05v7.02l-1.208-1.208V2.116c0-.502-.252-.59-.637-.2L8.74 4.6l-.854-.854zm8.716 8.716l-.862-.862a1.98 1.98 0 0 0-1.123-3.042.604.604 0 0 1 .305-1.17 3.188 3.188 0 0 1 2.38 3.083c0 .747-.26 1.442-.7 1.991zm2.276 2.276l-.858-.858a5.418 5.418 0 0 0-1.644-8.183.604.604 0 0 1 .573-1.063 6.625 6.625 0 0 1 3.485 5.837c0 1.6-.572 3.098-1.556 4.267zM2.205 2.302a.608.608 0 0 1 .86 0L18.73 17.967a.608.608 0 1 1-.86.86L2.206 3.162a.608.608 0 0 1 0-.86z"/>
</svg>
