<svg xmlns="http://www.w3.org/2000/svg" width="20" height="21" viewBox="0 0 20 21">
    <path fill="#7C878E" fill-rule="nonzero" d="M4.684 14.377h-2.96a1.5 1.5 0 0 1-1.5-1.499V7.509a1.5 1.5 0 0 1 1.5-1.499h2.955L9.916.79c1.112-1.13 2.701-.575 2.701 1.05v16.549c0 1.712-1.503 2.42-2.724 1.182l-5.209-5.193zm-.837-7.159H1.723c-.16 0-.29.132-.29.291v5.369c0 .16.13.29.29.29h2.125a1.884 1.884 0 0 1-.044-.4V7.62c0-.132.015-.269.043-.402zm1.226 5.843l.031.029 5.646 5.628c.437.444.66.34.66-.33V1.839c0-.502-.252-.59-.637-.199l-5.7 5.68a.998.998 0 0 0-.061.3v5.148c0 .129.057.29.06.293zm8.885-4.78a.604.604 0 1 1 .305-1.17 3.188 3.188 0 0 1 2.38 3.083 3.19 3.19 0 0 1-2.38 3.082.604.604 0 1 1-.305-1.168 1.981 1.981 0 0 0 1.478-1.914 1.98 1.98 0 0 0-1.478-1.914zm1.76-2.861a.604.604 0 1 1 .573-1.063 6.625 6.625 0 0 1 3.485 5.837 6.624 6.624 0 0 1-3.468 5.825.604.604 0 0 1-.577-1.061 5.416 5.416 0 0 0 2.837-4.764 5.418 5.418 0 0 0-2.85-4.774z"/>
</svg>
