<svg xmlns="http://www.w3.org/2000/svg" width="52" height="53" viewBox="0 0 52 53">
    <path fill="#FFF" fill-rule="nonzero" d="M20.355 14.006c.243-.243.578-.393.948-.393h7.046A8.385 8.385 0 0 1 36.734 22a8.385 8.385 0 0 1-8.385 8.386h-5.706v10.402a1.34 1.34 0 0 1-2.68 0V14.953c0-.37.15-.705.392-.947zM52 26.696c0 14.36-11.64 26-26 26s-26-11.64-26-26 11.64-26 26-26 26 11.64 26 26zm-2.68 0c0-12.879-10.44-23.32-23.32-23.32S2.68 13.818 2.68 26.697c0 12.88 10.44 23.32 23.32 23.32s23.32-10.44 23.32-23.32zm-20.971 1.009a5.705 5.705 0 1 0 0-11.411h-5.706v11.41h5.706z"/>
</svg>
