<svg xmlns="http://www.w3.org/2000/svg" width="52" height="49" viewBox="0 0 52 49">
    <path fill="#FFF" fill-rule="nonzero" d="M46.343 17.048h-5.4V2.11c0-.643-.521-1.164-1.164-1.164H12.21c-.642 0-1.163.52-1.163 1.164v14.938H5.647a4.683 4.683 0 0 0-4.676 4.678v16.307a4.682 4.682 0 0 0 4.676 4.677h5.562c.159 0 .31-.032.447-.09v5.162c0 .643.522 1.164 1.164 1.164h26.35c.643 0 1.164-.521 1.164-1.164V42.71h6.01a4.682 4.682 0 0 0 4.676-4.677V21.726a4.683 4.683 0 0 0-4.677-4.678zM13.373 3.274h25.242v13.774H13.374V3.274zM5.648 19.376h40.696a2.352 2.352 0 0 1 2.349 2.35v1.764H3.298v-1.764a2.353 2.353 0 0 1 2.35-2.35zm32.36 27.243H13.983v-14.8h24.022v14.8zm8.336-6.236h-6.009v-9.727c0-.643-.521-1.164-1.164-1.164H12.82c-.642 0-1.164.521-1.164 1.164v9.817a1.16 1.16 0 0 0-.447-.09H5.647a2.351 2.351 0 0 1-2.349-2.35V25.819h45.395v12.215a2.353 2.353 0 0 1-2.35 2.35zm-28.108-3.147a1.164 1.164 0 0 1 0-2.328h15.518a1.164 1.164 0 0 1 0 2.328H18.235zm0 6.441a1.164 1.164 0 0 1 0-2.328h8.784a1.164 1.164 0 1 1 0 2.328h-8.784z"/>
</svg>
