<svg xmlns="http://www.w3.org/2000/svg" width="56" height="38" viewBox="0 0 56 38">
    <path fill="#F0B323" fill-rule="evenodd" d="M53.797 8.131l-9.804 22.267a5.93 5.93 0 0 0-.462-1.492l-4.644-9.05L45.653 4.49a4.468 4.468 0 0 1 4.075-2.643c.627 0 1.238.13 1.816.389a4.43 4.43 0 0 1 2.348 2.479 4.433 4.433 0 0 1-.095 3.415zM42.474 32.903a4.429 4.429 0 0 1-2.312 2.512 4.413 4.413 0 0 1-1.874.416 4.416 4.416 0 0 1-1.602-.312 4.464 4.464 0 0 1-2.129-5.831l3.637-8.26 4.138 8.064a4.429 4.429 0 0 1 .142 3.41zm-9.233-19.26c.168-.364.295-.738.385-1.12L37.41 19.9l-4.072 9.248a5.738 5.738 0 0 0-.433 1.498l-4.194-8.174 4.53-8.829zm-10.022 16.61a5.851 5.851 0 0 0-.365-1.103l-4.197-9.531 3.643-7.102c.09.388.22.773.394 1.15l4.518 8.804-3.993 7.783zm-1.492 2.85a4.414 4.414 0 0 1-.322.644 4.476 4.476 0 0 1-3.77 2.084c-.65 0-1.28-.14-1.874-.416a4.427 4.427 0 0 1-2.312-2.512 4.418 4.418 0 0 1 .13-3.387l4.293-8.368 3.762 8.543c.485 1.087.519 2.3.093 3.413zM2.298 4.717a4.43 4.43 0 0 1 2.348-2.48 4.423 4.423 0 0 1 1.816-.388 4.467 4.467 0 0 1 4.074 2.64l6.644 15.087-4.8 9.355c-.158.34-.28.691-.368 1.047L2.39 8.128a4.433 4.433 0 0 1-.093-3.412zm29.744 8.341l-4.08 7.954-4.069-7.93a4.446 4.446 0 0 1-.152-3.372l.196-.383a4.476 4.476 0 0 1 4.024-2.582c1.723.01 3.3 1.02 4.037 2.606l.184.36a4.416 4.416 0 0 1-.14 3.347zm23.096-8.819a5.758 5.758 0 0 0-3.05-3.22 5.754 5.754 0 0 0-2.36-.504 5.806 5.806 0 0 0-5.295 3.436l-6.33 14.377-4.681-9.123a5.759 5.759 0 0 0-3-3.258 5.757 5.757 0 0 0-2.435-.538l-.026.001-.025-.001c-.844 0-1.663.181-2.435.538a5.763 5.763 0 0 0-2.969 3.197l-4.568 8.903-6.208-14.099A5.804 5.804 0 0 0 6.462.514c-.816 0-1.61.17-2.36.505a5.756 5.756 0 0 0-3.05 3.22 5.757 5.757 0 0 0 .12 4.43l11.097 25.203a5.804 5.804 0 0 0 5.295 3.434c.815 0 1.61-.17 2.36-.505a5.752 5.752 0 0 0 2.862-2.796c.03-.06.069-.113.097-.174l5.078-9.899 5.067 9.876a5.802 5.802 0 0 0 3.108 2.927c.045.02.086.046.13.066.75.335 1.545.505 2.36.505a5.804 5.804 0 0 0 5.296-3.438L55.017 8.672a5.757 5.757 0 0 0 .121-4.434z"/>
</svg>
